<svg xmlns="http://www.w3.org/2000/svg" xmlns:xlink="http://www.w3.org/1999/xlink" width="220" zoomAndPan="magnify" viewBox="0 0 165 44.999999" height="60" preserveAspectRatio="xMidYMid meet" version="1.0"><defs><clipPath id="b75de67b3c"><path d="M 30 6.304688 L 36.289062 6.304688 L 36.289062 9.984375 L 30 9.984375 Z M 30 6.304688 " clip-rule="nonzero"/></clipPath><clipPath id="dd8e3cabc7"><path d="M 14.875 29.121094 L 32.960938 29.121094 L 32.960938 33.136719 L 14.875 33.136719 Z M 14.875 29.121094 " clip-rule="nonzero"/></clipPath><clipPath id="79c477fb1a"><path d="M 33.378906 29.121094 L 51.378906 29.121094 L 51.378906 33.136719 L 33.378906 33.136719 Z M 33.378906 29.121094 " clip-rule="nonzero"/></clipPath></defs><path fill="#000000" d="M 53.253906 37.503906 C 53.273438 37.503906 53.296875 37.503906 53.316406 37.503906 C 53.34375 37.503906 53.367188 37.503906 53.390625 37.503906 C 53.449219 37.503906 53.5 37.488281 53.546875 37.457031 C 53.585938 37.429688 53.609375 37.367188 53.609375 37.269531 L 53.609375 35.378906 L 54 35.378906 L 54 37.238281 C 54 37.363281 53.984375 37.46875 53.953125 37.550781 C 53.925781 37.628906 53.882812 37.691406 53.832031 37.738281 C 53.78125 37.78125 53.71875 37.8125 53.648438 37.835938 C 53.585938 37.851562 53.515625 37.859375 53.441406 37.859375 C 53.40625 37.859375 53.375 37.859375 53.34375 37.859375 C 53.316406 37.859375 53.285156 37.859375 53.253906 37.855469 Z M 53.253906 37.503906 " fill-opacity="1" fill-rule="nonzero"/><path fill="#000000" d="M 56.070312 37.28125 C 56.070312 37.375 56.085938 37.4375 56.121094 37.476562 C 56.160156 37.511719 56.207031 37.53125 56.269531 37.53125 C 56.332031 37.53125 56.378906 37.511719 56.414062 37.476562 C 56.453125 37.4375 56.472656 37.375 56.472656 37.28125 L 56.472656 35.945312 C 56.472656 35.859375 56.453125 35.796875 56.414062 35.761719 C 56.378906 35.722656 56.332031 35.703125 56.269531 35.703125 C 56.207031 35.703125 56.160156 35.722656 56.121094 35.761719 C 56.085938 35.796875 56.070312 35.859375 56.070312 35.945312 Z M 55.679688 35.96875 C 55.679688 35.769531 55.726562 35.617188 55.828125 35.507812 C 55.933594 35.402344 56.078125 35.34375 56.269531 35.34375 C 56.460938 35.34375 56.605469 35.402344 56.707031 35.507812 C 56.808594 35.617188 56.863281 35.769531 56.863281 35.96875 L 56.863281 37.257812 C 56.863281 37.460938 56.808594 37.617188 56.707031 37.726562 C 56.605469 37.828125 56.460938 37.878906 56.269531 37.878906 C 56.078125 37.878906 55.933594 37.828125 55.828125 37.726562 C 55.726562 37.617188 55.679688 37.460938 55.679688 37.257812 Z M 55.679688 35.96875 " fill-opacity="1" fill-rule="nonzero"/><path fill="#000000" d="M 58.554688 35.378906 L 58.945312 35.378906 L 58.945312 37.855469 L 58.554688 37.855469 Z M 58.554688 35.378906 " fill-opacity="1" fill-rule="nonzero"/><path fill="#000000" d="M 61.015625 36.0625 L 61.015625 37.855469 L 60.664062 37.855469 L 60.664062 35.378906 L 61.152344 35.378906 L 61.554688 36.859375 L 61.554688 35.378906 L 61.898438 35.378906 L 61.898438 37.855469 L 61.503906 37.855469 Z M 61.015625 36.0625 " fill-opacity="1" fill-rule="nonzero"/><path fill="#000000" d="M 65.984375 35.378906 L 65.984375 37.289062 C 65.984375 37.378906 66.003906 37.445312 66.039062 37.476562 C 66.078125 37.511719 66.125 37.53125 66.1875 37.53125 C 66.246094 37.53125 66.296875 37.511719 66.332031 37.476562 C 66.371094 37.445312 66.390625 37.378906 66.390625 37.289062 L 66.390625 35.378906 L 66.761719 35.378906 L 66.761719 37.261719 C 66.761719 37.464844 66.710938 37.617188 66.609375 37.726562 C 66.515625 37.832031 66.371094 37.886719 66.175781 37.886719 C 65.984375 37.886719 65.839844 37.832031 65.738281 37.726562 C 65.644531 37.617188 65.597656 37.464844 65.597656 37.261719 L 65.597656 35.378906 Z M 65.984375 35.378906 " fill-opacity="1" fill-rule="nonzero"/><path fill="#000000" d="M 68.414062 35.96875 C 68.414062 35.769531 68.460938 35.617188 68.558594 35.507812 C 68.652344 35.402344 68.796875 35.34375 68.988281 35.34375 C 69.183594 35.34375 69.328125 35.402344 69.421875 35.507812 C 69.515625 35.617188 69.566406 35.769531 69.566406 35.96875 L 69.566406 36.046875 L 69.195312 36.046875 L 69.195312 35.945312 C 69.195312 35.859375 69.175781 35.796875 69.144531 35.761719 C 69.109375 35.722656 69.0625 35.703125 69 35.703125 C 68.9375 35.703125 68.890625 35.722656 68.859375 35.761719 C 68.820312 35.796875 68.804688 35.859375 68.804688 35.945312 C 68.804688 36.03125 68.824219 36.105469 68.863281 36.171875 C 68.902344 36.234375 68.949219 36.300781 69.007812 36.359375 C 69.0625 36.417969 69.125 36.472656 69.1875 36.527344 C 69.253906 36.585938 69.3125 36.648438 69.371094 36.71875 C 69.425781 36.785156 69.472656 36.863281 69.507812 36.949219 C 69.546875 37.039062 69.566406 37.140625 69.566406 37.257812 C 69.566406 37.460938 69.515625 37.617188 69.417969 37.726562 C 69.320312 37.828125 69.175781 37.878906 68.988281 37.878906 C 68.796875 37.878906 68.652344 37.828125 68.550781 37.726562 C 68.457031 37.617188 68.410156 37.460938 68.410156 37.257812 L 68.410156 37.105469 L 68.773438 37.105469 L 68.773438 37.28125 C 68.773438 37.375 68.789062 37.4375 68.824219 37.472656 C 68.863281 37.507812 68.914062 37.523438 68.972656 37.523438 C 69.035156 37.523438 69.082031 37.507812 69.117188 37.472656 C 69.15625 37.4375 69.175781 37.375 69.175781 37.28125 C 69.175781 37.203125 69.15625 37.125 69.117188 37.0625 C 69.082031 36.996094 69.035156 36.9375 68.980469 36.878906 C 68.925781 36.820312 68.863281 36.761719 68.800781 36.703125 C 68.734375 36.644531 68.671875 36.582031 68.617188 36.515625 C 68.558594 36.449219 68.511719 36.371094 68.472656 36.28125 C 68.433594 36.191406 68.414062 36.085938 68.414062 35.96875 Z M 68.414062 35.96875 " fill-opacity="1" fill-rule="nonzero"/><path fill="#000000" d="M 73.226562 37.0625 C 73.226562 36.9375 73.246094 36.832031 73.285156 36.742188 C 73.324219 36.652344 73.398438 36.585938 73.496094 36.542969 C 73.316406 36.46875 73.226562 36.300781 73.226562 36.035156 L 73.226562 35.988281 C 73.226562 35.785156 73.273438 35.636719 73.367188 35.535156 C 73.460938 35.429688 73.609375 35.378906 73.808594 35.378906 L 74.25 35.378906 L 74.25 35.730469 L 73.816406 35.730469 C 73.753906 35.730469 73.707031 35.746094 73.667969 35.78125 C 73.632812 35.816406 73.613281 35.878906 73.613281 35.96875 L 73.613281 36.121094 C 73.613281 36.21875 73.632812 36.289062 73.671875 36.328125 C 73.714844 36.367188 73.773438 36.386719 73.847656 36.386719 L 74.019531 36.386719 L 74.019531 36.105469 L 74.40625 36.105469 L 74.40625 36.386719 L 74.511719 36.386719 L 74.511719 36.738281 L 74.40625 36.738281 L 74.40625 37.554688 C 74.40625 37.617188 74.410156 37.671875 74.414062 37.71875 C 74.421875 37.761719 74.433594 37.808594 74.453125 37.855469 L 74.058594 37.855469 C 74.046875 37.828125 74.039062 37.804688 74.039062 37.78125 C 74.03125 37.757812 74.027344 37.714844 74.019531 37.660156 C 73.953125 37.808594 73.832031 37.878906 73.660156 37.878906 C 73.515625 37.878906 73.410156 37.832031 73.335938 37.738281 C 73.261719 37.644531 73.226562 37.503906 73.226562 37.316406 Z M 73.613281 37.28125 C 73.613281 37.375 73.632812 37.4375 73.667969 37.476562 C 73.707031 37.511719 73.753906 37.53125 73.816406 37.53125 C 73.875 37.53125 73.921875 37.515625 73.960938 37.484375 C 73.992188 37.449219 74.011719 37.394531 74.019531 37.316406 L 74.019531 36.738281 L 73.875 36.738281 C 73.785156 36.738281 73.714844 36.761719 73.671875 36.808594 C 73.632812 36.855469 73.613281 36.9375 73.613281 37.054688 Z M 73.613281 37.28125 " fill-opacity="1" fill-rule="nonzero"/><path fill="#000000" d="M 78.949219 37.132812 L 79.214844 35.378906 L 79.753906 35.378906 L 79.753906 37.855469 L 79.382812 37.855469 L 79.382812 36.074219 L 79.117188 37.855469 L 78.746094 37.855469 L 78.460938 36.101562 L 78.460938 37.855469 L 78.117188 37.855469 L 78.117188 35.378906 L 78.664062 35.378906 Z M 78.949219 37.132812 " fill-opacity="1" fill-rule="nonzero"/><path fill="#000000" d="M 81.839844 37.28125 C 81.839844 37.375 81.855469 37.4375 81.890625 37.476562 C 81.929688 37.511719 81.980469 37.53125 82.039062 37.53125 C 82.101562 37.53125 82.148438 37.511719 82.183594 37.476562 C 82.222656 37.4375 82.242188 37.375 82.242188 37.28125 L 82.242188 35.945312 C 82.242188 35.859375 82.222656 35.796875 82.183594 35.761719 C 82.148438 35.722656 82.101562 35.703125 82.039062 35.703125 C 81.980469 35.703125 81.929688 35.722656 81.890625 35.761719 C 81.855469 35.796875 81.839844 35.859375 81.839844 35.945312 Z M 81.449219 35.96875 C 81.449219 35.769531 81.496094 35.617188 81.597656 35.507812 C 81.703125 35.402344 81.847656 35.34375 82.039062 35.34375 C 82.230469 35.34375 82.375 35.402344 82.476562 35.507812 C 82.582031 35.617188 82.632812 35.769531 82.632812 35.96875 L 82.632812 37.257812 C 82.632812 37.460938 82.582031 37.617188 82.476562 37.726562 C 82.375 37.828125 82.230469 37.878906 82.039062 37.878906 C 81.847656 37.878906 81.703125 37.828125 81.597656 37.726562 C 81.496094 37.617188 81.449219 37.460938 81.449219 37.257812 Z M 81.449219 35.96875 " fill-opacity="1" fill-rule="nonzero"/><path fill="#000000" d="M 84.910156 37.398438 L 85.210938 35.378906 L 85.566406 35.378906 L 85.183594 37.855469 L 84.605469 37.855469 L 84.222656 35.378906 L 84.613281 35.378906 Z M 84.910156 37.398438 " fill-opacity="1" fill-rule="nonzero"/><path fill="#000000" d="M 87.582031 36.417969 L 88.113281 36.417969 L 88.113281 36.777344 L 87.582031 36.777344 L 87.582031 37.503906 L 88.25 37.503906 L 88.25 37.855469 L 87.191406 37.855469 L 87.191406 35.378906 L 88.25 35.378906 L 88.25 35.730469 L 87.582031 35.730469 Z M 87.582031 36.417969 " fill-opacity="1" fill-rule="nonzero"/><path fill="#000000" d="M 91.8125 35.378906 L 93.019531 35.378906 L 93.019531 35.730469 L 92.609375 35.730469 L 92.609375 37.855469 L 92.21875 37.855469 L 92.21875 35.730469 L 91.8125 35.730469 Z M 91.8125 35.378906 " fill-opacity="1" fill-rule="nonzero"/><path fill="#000000" d="M 94.988281 37.28125 C 94.988281 37.375 95.003906 37.4375 95.039062 37.476562 C 95.078125 37.511719 95.128906 37.53125 95.191406 37.53125 C 95.25 37.53125 95.296875 37.511719 95.332031 37.476562 C 95.371094 37.4375 95.390625 37.375 95.390625 37.28125 L 95.390625 35.945312 C 95.390625 35.859375 95.371094 35.796875 95.332031 35.761719 C 95.296875 35.722656 95.25 35.703125 95.191406 35.703125 C 95.128906 35.703125 95.078125 35.722656 95.039062 35.761719 C 95.003906 35.796875 94.988281 35.859375 94.988281 35.945312 Z M 94.597656 35.96875 C 94.597656 35.769531 94.648438 35.617188 94.746094 35.507812 C 94.851562 35.402344 94.996094 35.34375 95.191406 35.34375 C 95.378906 35.34375 95.523438 35.402344 95.625 35.507812 C 95.730469 35.617188 95.78125 35.769531 95.78125 35.96875 L 95.78125 37.257812 C 95.78125 37.460938 95.730469 37.617188 95.625 37.726562 C 95.523438 37.828125 95.378906 37.878906 95.191406 37.878906 C 94.996094 37.878906 94.851562 37.828125 94.746094 37.726562 C 94.648438 37.617188 94.597656 37.460938 94.597656 37.257812 Z M 94.597656 35.96875 " fill-opacity="1" fill-rule="nonzero"/><path fill="#000000" d="M 98.339844 36.535156 L 98.195312 37.855469 L 97.664062 37.855469 L 97.382812 35.378906 L 97.761719 35.378906 L 97.976562 37.328125 L 98.164062 35.378906 L 98.535156 35.378906 L 98.730469 37.347656 L 98.929688 35.378906 L 99.273438 35.378906 L 98.996094 37.855469 L 98.480469 37.855469 Z M 98.339844 36.535156 " fill-opacity="1" fill-rule="nonzero"/><path fill="#000000" d="M 102.171875 37.855469 L 101.777344 37.855469 L 101.710938 37.40625 L 101.230469 37.40625 L 101.164062 37.855469 L 100.808594 37.855469 L 101.203125 35.378906 L 101.777344 35.378906 Z M 101.28125 37.066406 L 101.660156 37.066406 L 101.46875 35.8125 Z M 101.28125 37.066406 " fill-opacity="1" fill-rule="nonzero"/><path fill="#000000" d="M 104.605469 37.855469 C 104.601562 37.839844 104.597656 37.820312 104.59375 37.808594 C 104.589844 37.796875 104.582031 37.78125 104.582031 37.757812 C 104.574219 37.734375 104.574219 37.710938 104.574219 37.679688 C 104.574219 37.644531 104.574219 37.601562 104.574219 37.550781 L 104.574219 37.160156 C 104.574219 37.042969 104.550781 36.960938 104.507812 36.917969 C 104.46875 36.871094 104.40625 36.847656 104.3125 36.847656 L 104.183594 36.847656 L 104.183594 37.855469 L 103.792969 37.855469 L 103.792969 35.378906 L 104.378906 35.378906 C 104.582031 35.378906 104.730469 35.425781 104.820312 35.519531 C 104.914062 35.613281 104.957031 35.753906 104.957031 35.945312 L 104.957031 36.136719 C 104.957031 36.394531 104.875 36.5625 104.703125 36.644531 C 104.804688 36.683594 104.871094 36.75 104.90625 36.839844 C 104.945312 36.933594 104.964844 37.042969 104.964844 37.171875 L 104.964844 37.554688 C 104.964844 37.617188 104.964844 37.671875 104.96875 37.71875 C 104.972656 37.761719 104.984375 37.808594 105.003906 37.855469 Z M 104.183594 35.730469 L 104.183594 36.488281 L 104.332031 36.488281 C 104.40625 36.488281 104.464844 36.472656 104.503906 36.4375 C 104.546875 36.398438 104.566406 36.332031 104.566406 36.230469 L 104.566406 35.984375 C 104.566406 35.898438 104.550781 35.832031 104.515625 35.792969 C 104.484375 35.75 104.4375 35.730469 104.371094 35.730469 Z M 104.183594 35.730469 " fill-opacity="1" fill-rule="nonzero"/><path fill="#000000" d="M 106.660156 35.378906 L 107.277344 35.378906 C 107.472656 35.378906 107.617188 35.429688 107.714844 35.535156 C 107.808594 35.636719 107.855469 35.785156 107.855469 35.988281 L 107.855469 37.242188 C 107.855469 37.445312 107.808594 37.59375 107.714844 37.699219 C 107.617188 37.800781 107.472656 37.855469 107.277344 37.855469 L 106.660156 37.855469 Z M 107.050781 35.730469 L 107.050781 37.503906 L 107.269531 37.503906 C 107.332031 37.503906 107.378906 37.488281 107.414062 37.453125 C 107.449219 37.414062 107.464844 37.347656 107.464844 37.257812 L 107.464844 35.96875 C 107.464844 35.878906 107.449219 35.816406 107.414062 35.78125 C 107.378906 35.746094 107.332031 35.730469 107.269531 35.730469 Z M 107.050781 35.730469 " fill-opacity="1" fill-rule="nonzero"/><path fill="#000000" d="M 109.496094 35.96875 C 109.496094 35.769531 109.542969 35.617188 109.636719 35.507812 C 109.730469 35.402344 109.875 35.34375 110.066406 35.34375 C 110.261719 35.34375 110.40625 35.402344 110.503906 35.507812 C 110.597656 35.617188 110.644531 35.769531 110.644531 35.96875 L 110.644531 36.046875 L 110.273438 36.046875 L 110.273438 35.945312 C 110.273438 35.859375 110.257812 35.796875 110.222656 35.761719 C 110.1875 35.722656 110.140625 35.703125 110.078125 35.703125 C 110.019531 35.703125 109.972656 35.722656 109.9375 35.761719 C 109.902344 35.796875 109.886719 35.859375 109.886719 35.945312 C 109.886719 36.03125 109.90625 36.105469 109.945312 36.171875 C 109.984375 36.234375 110.03125 36.300781 110.085938 36.359375 C 110.140625 36.417969 110.203125 36.472656 110.269531 36.527344 C 110.332031 36.585938 110.394531 36.648438 110.449219 36.71875 C 110.503906 36.785156 110.550781 36.863281 110.585938 36.949219 C 110.625 37.039062 110.644531 37.140625 110.644531 37.257812 C 110.644531 37.460938 110.59375 37.617188 110.496094 37.726562 C 110.398438 37.828125 110.257812 37.878906 110.066406 37.878906 C 109.875 37.878906 109.730469 37.828125 109.632812 37.726562 C 109.535156 37.617188 109.488281 37.460938 109.488281 37.257812 L 109.488281 37.105469 L 109.851562 37.105469 L 109.851562 37.28125 C 109.851562 37.375 109.867188 37.4375 109.90625 37.472656 C 109.945312 37.507812 109.992188 37.523438 110.054688 37.523438 C 110.113281 37.523438 110.160156 37.507812 110.195312 37.472656 C 110.234375 37.4375 110.253906 37.375 110.253906 37.28125 C 110.253906 37.203125 110.234375 37.125 110.195312 37.0625 C 110.160156 36.996094 110.117188 36.9375 110.0625 36.878906 C 110.003906 36.820312 109.945312 36.761719 109.878906 36.703125 C 109.8125 36.644531 109.75 36.582031 109.695312 36.515625 C 109.640625 36.449219 109.59375 36.371094 109.554688 36.28125 C 109.515625 36.191406 109.496094 36.085938 109.496094 35.96875 Z M 109.496094 35.96875 " fill-opacity="1" fill-rule="nonzero"/><path fill="#000000" d="M 114.695312 36.417969 L 115.226562 36.417969 L 115.226562 36.777344 L 114.695312 36.777344 L 114.695312 37.503906 L 115.363281 37.503906 L 115.363281 37.855469 L 114.304688 37.855469 L 114.304688 35.378906 L 115.363281 35.378906 L 115.363281 35.730469 L 114.695312 35.730469 Z M 114.695312 36.417969 " fill-opacity="1" fill-rule="nonzero"/><path fill="#000000" d="M 118.351562 35.378906 L 117.941406 36.582031 L 118.375 37.855469 L 117.964844 37.855469 L 117.648438 36.875 L 117.324219 37.855469 L 116.957031 37.855469 L 117.394531 36.582031 L 116.992188 35.378906 L 117.394531 35.378906 L 117.6875 36.289062 L 117.984375 35.378906 Z M 118.351562 35.378906 " fill-opacity="1" fill-rule="nonzero"/><path fill="#000000" d="M 121.144531 36.933594 L 121.144531 37.257812 C 121.144531 37.460938 121.09375 37.617188 120.996094 37.726562 C 120.894531 37.828125 120.75 37.878906 120.558594 37.878906 C 120.367188 37.878906 120.222656 37.828125 120.125 37.726562 C 120.027344 37.617188 119.980469 37.460938 119.980469 37.257812 L 119.980469 35.96875 C 119.980469 35.769531 120.027344 35.617188 120.125 35.507812 C 120.222656 35.402344 120.367188 35.34375 120.558594 35.34375 C 120.75 35.34375 120.894531 35.402344 120.996094 35.507812 C 121.09375 35.617188 121.144531 35.769531 121.144531 35.96875 L 121.144531 36.210938 L 120.773438 36.210938 L 120.773438 35.945312 C 120.773438 35.859375 120.753906 35.796875 120.714844 35.761719 C 120.679688 35.722656 120.632812 35.703125 120.574219 35.703125 C 120.511719 35.703125 120.464844 35.722656 120.425781 35.761719 C 120.386719 35.796875 120.371094 35.859375 120.371094 35.945312 L 120.371094 37.28125 C 120.371094 37.375 120.386719 37.4375 120.425781 37.472656 C 120.464844 37.507812 120.511719 37.523438 120.574219 37.523438 C 120.632812 37.523438 120.679688 37.507812 120.714844 37.472656 C 120.753906 37.4375 120.773438 37.375 120.773438 37.28125 L 120.773438 36.933594 Z M 121.144531 36.933594 " fill-opacity="1" fill-rule="nonzero"/><path fill="#000000" d="M 123.214844 36.417969 L 123.746094 36.417969 L 123.746094 36.777344 L 123.214844 36.777344 L 123.214844 37.503906 L 123.882812 37.503906 L 123.882812 37.855469 L 122.824219 37.855469 L 122.824219 35.378906 L 123.882812 35.378906 L 123.882812 35.730469 L 123.214844 35.730469 Z M 123.214844 36.417969 " fill-opacity="1" fill-rule="nonzero"/><path fill="#000000" d="M 125.570312 35.378906 L 125.957031 35.378906 L 125.957031 37.503906 L 126.59375 37.503906 L 126.59375 37.855469 L 125.570312 37.855469 Z M 125.570312 35.378906 " fill-opacity="1" fill-rule="nonzero"/><path fill="#000000" d="M 128.210938 35.378906 L 128.601562 35.378906 L 128.601562 37.503906 L 129.238281 37.503906 L 129.238281 37.855469 L 128.210938 37.855469 Z M 128.210938 35.378906 " fill-opacity="1" fill-rule="nonzero"/><path fill="#000000" d="M 131.242188 36.417969 L 131.777344 36.417969 L 131.777344 36.777344 L 131.242188 36.777344 L 131.242188 37.503906 L 131.914062 37.503906 L 131.914062 37.855469 L 130.855469 37.855469 L 130.855469 35.378906 L 131.914062 35.378906 L 131.914062 35.730469 L 131.242188 35.730469 Z M 131.242188 36.417969 " fill-opacity="1" fill-rule="nonzero"/><path fill="#000000" d="M 133.945312 36.0625 L 133.945312 37.855469 L 133.59375 37.855469 L 133.59375 35.378906 L 134.078125 35.378906 L 134.484375 36.859375 L 134.484375 35.378906 L 134.828125 35.378906 L 134.828125 37.855469 L 134.429688 37.855469 Z M 133.945312 36.0625 " fill-opacity="1" fill-rule="nonzero"/><path fill="#000000" d="M 137.683594 36.933594 L 137.683594 37.257812 C 137.683594 37.460938 137.632812 37.617188 137.535156 37.726562 C 137.433594 37.828125 137.289062 37.878906 137.097656 37.878906 C 136.90625 37.878906 136.761719 37.828125 136.664062 37.726562 C 136.566406 37.617188 136.519531 37.460938 136.519531 37.257812 L 136.519531 35.96875 C 136.519531 35.769531 136.566406 35.617188 136.664062 35.507812 C 136.761719 35.402344 136.90625 35.34375 137.097656 35.34375 C 137.289062 35.34375 137.433594 35.402344 137.535156 35.507812 C 137.632812 35.617188 137.683594 35.769531 137.683594 35.96875 L 137.683594 36.210938 L 137.3125 36.210938 L 137.3125 35.945312 C 137.3125 35.859375 137.292969 35.796875 137.253906 35.761719 C 137.21875 35.722656 137.171875 35.703125 137.113281 35.703125 C 137.050781 35.703125 137 35.722656 136.960938 35.761719 C 136.925781 35.796875 136.910156 35.859375 136.910156 35.945312 L 136.910156 37.28125 C 136.910156 37.375 136.925781 37.4375 136.960938 37.472656 C 137 37.507812 137.050781 37.523438 137.113281 37.523438 C 137.171875 37.523438 137.21875 37.507812 137.253906 37.472656 C 137.292969 37.4375 137.3125 37.375 137.3125 37.28125 L 137.3125 36.933594 Z M 137.683594 36.933594 " fill-opacity="1" fill-rule="nonzero"/><path fill="#000000" d="M 139.753906 36.417969 L 140.285156 36.417969 L 140.285156 36.777344 L 139.753906 36.777344 L 139.753906 37.503906 L 140.421875 37.503906 L 140.421875 37.855469 L 139.363281 37.855469 L 139.363281 35.378906 L 140.421875 35.378906 L 140.421875 35.730469 L 139.753906 35.730469 Z M 139.753906 36.417969 " fill-opacity="1" fill-rule="nonzero"/><path fill="#f68c11" d="M 33.125 13.511719 C 29.035156 9.804688 24.230469 11.136719 24.230469 11.136719 C 31.316406 11.261719 33.125 20.816406 33.125 20.816406 C 33.125 20.816406 34.933594 11.261719 42.019531 11.136719 C 42.019531 11.136719 37.21875 9.804688 33.125 13.511719 " fill-opacity="1" fill-rule="nonzero"/><path fill="#f68c11" d="M 34.882812 10.277344 C 34.882812 11.246094 34.09375 12.03125 33.125 12.03125 C 32.15625 12.03125 31.371094 11.246094 31.371094 10.277344 C 31.371094 9.3125 32.15625 8.53125 33.125 8.53125 C 34.09375 8.53125 34.882812 9.3125 34.882812 10.277344 " fill-opacity="1" fill-rule="nonzero"/><g clip-path="url(#b75de67b3c)"><path fill="#f68c11" d="M 36.25 7.859375 L 33.125 6.304688 L 30.003906 7.859375 L 31.445312 8.578125 L 31.445312 9.882812 L 34.808594 9.882812 L 34.808594 8.578125 L 36.25 7.859375 " fill-opacity="1" fill-rule="nonzero"/></g><path fill="#ed166d" d="M 27.316406 13.75 C 27.316406 13.75 27.523438 14.0625 27.703125 14.597656 C 28.5 17.007812 26.863281 19.527344 24.335938 19.84375 C 21.917969 20.144531 21.019531 21.226562 21.019531 21.226562 C 23.261719 20.011719 25.335938 21.390625 26.589844 22.160156 C 28.542969 23.367188 29.144531 23.945312 30.59375 24.15625 C 30.59375 24.15625 28.597656 23.148438 28.757812 19.4375 C 28.859375 17.15625 28.949219 15.273438 27.316406 13.75 Z M 25.972656 18.847656 C 26.492188 18.550781 26.675781 17.894531 26.378906 17.375 C 26.085938 16.855469 25.421875 16.671875 24.902344 16.96875 C 24.378906 17.261719 24.199219 17.921875 24.492188 18.441406 C 24.789062 18.960938 25.453125 19.140625 25.972656 18.847656 " fill-opacity="1" fill-rule="nonzero"/><path fill="#ed166d" d="M 23.003906 17.640625 L 24.0625 15.835938 L 26.144531 15.59375 L 25.660156 16.425781 L 26.089844 17.082031 L 24.398438 18.1875 L 23.964844 17.53125 L 23.003906 17.640625 " fill-opacity="1" fill-rule="nonzero"/><path fill="#57bda9" d="M 37.492188 19.4375 C 37.652344 23.148438 35.65625 24.15625 35.65625 24.15625 C 37.109375 23.945312 37.707031 23.367188 39.664062 22.160156 C 40.917969 21.390625 42.988281 20.011719 45.234375 21.226562 C 45.234375 21.226562 44.335938 20.144531 41.917969 19.84375 C 39.386719 19.527344 37.75 17.007812 38.550781 14.597656 C 38.726562 14.0625 38.933594 13.75 38.933594 13.75 C 37.300781 15.273438 37.390625 17.15625 37.492188 19.4375 Z M 41.757812 18.441406 C 42.054688 17.921875 41.871094 17.261719 41.351562 16.96875 C 40.828125 16.671875 40.167969 16.855469 39.871094 17.375 C 39.574219 17.894531 39.757812 18.550781 40.277344 18.847656 C 40.800781 19.140625 41.460938 18.960938 41.757812 18.441406 " fill-opacity="1" fill-rule="nonzero"/><path fill="#57bda9" d="M 43.246094 17.640625 L 42.191406 15.835938 L 40.105469 15.59375 L 40.59375 16.425781 L 40.160156 17.082031 L 41.851562 18.1875 L 42.285156 17.53125 L 43.246094 17.640625 " fill-opacity="1" fill-rule="nonzero"/><g clip-path="url(#dd8e3cabc7)"><path fill="#274082" d="M 14.898438 31.574219 C 14.898438 31.574219 14.960938 31.539062 15.078125 31.480469 C 15.199219 31.417969 15.363281 31.328125 15.609375 31.210938 C 15.671875 31.183594 15.734375 31.152344 15.800781 31.121094 C 15.871094 31.085938 15.9375 31.054688 16.011719 31.023438 C 16.152344 30.960938 16.308594 30.890625 16.476562 30.820312 C 16.644531 30.75 16.824219 30.679688 17.011719 30.605469 C 17.207031 30.535156 17.402344 30.457031 17.613281 30.386719 C 17.828125 30.320312 18.046875 30.242188 18.277344 30.175781 C 18.390625 30.144531 18.507812 30.109375 18.628906 30.074219 C 18.746094 30.042969 18.867188 30.011719 18.992188 29.980469 C 19.050781 29.964844 19.113281 29.945312 19.175781 29.929688 C 19.238281 29.914062 19.300781 29.902344 19.363281 29.886719 C 19.492188 29.859375 19.621094 29.828125 19.75 29.800781 C 20.011719 29.75 20.277344 29.691406 20.550781 29.652344 C 20.820312 29.605469 21.101562 29.566406 21.378906 29.53125 C 21.519531 29.515625 21.664062 29.5 21.804688 29.484375 C 21.875 29.480469 21.945312 29.46875 22.019531 29.464844 C 22.089844 29.460938 22.160156 29.453125 22.234375 29.449219 C 22.378906 29.441406 22.519531 29.425781 22.664062 29.421875 C 22.808594 29.414062 22.957031 29.40625 23.101562 29.402344 C 23.246094 29.398438 23.390625 29.398438 23.539062 29.394531 C 23.683594 29.390625 23.828125 29.390625 23.976562 29.394531 C 24.265625 29.398438 24.558594 29.410156 24.84375 29.425781 C 24.988281 29.4375 25.132812 29.445312 25.277344 29.457031 C 25.417969 29.464844 25.5625 29.480469 25.703125 29.496094 C 25.847656 29.511719 25.988281 29.523438 26.128906 29.542969 C 26.269531 29.5625 26.40625 29.582031 26.546875 29.597656 C 26.683594 29.617188 26.820312 29.644531 26.957031 29.664062 C 27.089844 29.683594 27.226562 29.707031 27.359375 29.734375 C 27.492188 29.761719 27.621094 29.785156 27.753906 29.808594 C 27.882812 29.839844 28.011719 29.867188 28.136719 29.894531 C 28.203125 29.910156 28.265625 29.925781 28.328125 29.9375 C 28.390625 29.953125 28.453125 29.96875 28.511719 29.984375 C 28.636719 30.015625 28.757812 30.046875 28.878906 30.074219 C 28.996094 30.109375 29.113281 30.140625 29.230469 30.175781 C 29.34375 30.207031 29.457031 30.234375 29.566406 30.273438 C 29.679688 30.308594 29.789062 30.339844 29.894531 30.375 C 29.945312 30.390625 30 30.40625 30.050781 30.425781 C 30.105469 30.441406 30.15625 30.460938 30.207031 30.476562 C 30.613281 30.613281 30.980469 30.753906 31.304688 30.882812 C 31.464844 30.949219 31.617188 31.011719 31.753906 31.066406 C 31.890625 31.128906 32.015625 31.183594 32.132812 31.234375 C 32.1875 31.261719 32.242188 31.285156 32.292969 31.308594 C 32.34375 31.332031 32.390625 31.355469 32.433594 31.375 C 32.519531 31.414062 32.59375 31.453125 32.65625 31.480469 C 32.777344 31.539062 32.839844 31.570312 32.839844 31.570312 C 32.839844 31.570312 32.773438 31.542969 32.648438 31.5 C 32.585938 31.476562 32.507812 31.449219 32.417969 31.414062 C 32.371094 31.398438 32.324219 31.382812 32.269531 31.363281 C 32.21875 31.347656 32.160156 31.328125 32.101562 31.308594 C 31.984375 31.269531 31.855469 31.226562 31.714844 31.179688 C 31.570312 31.136719 31.414062 31.089844 31.25 31.039062 C 30.917969 30.945312 30.542969 30.84375 30.128906 30.75 C 30.078125 30.738281 30.023438 30.726562 29.972656 30.710938 C 29.917969 30.699219 29.867188 30.691406 29.8125 30.679688 C 29.703125 30.65625 29.59375 30.632812 29.480469 30.609375 C 29.371094 30.585938 29.257812 30.570312 29.140625 30.546875 C 29.027344 30.527344 28.910156 30.503906 28.789062 30.484375 C 28.667969 30.46875 28.546875 30.449219 28.425781 30.433594 C 28.363281 30.421875 28.300781 30.414062 28.242188 30.40625 C 28.175781 30.398438 28.117188 30.390625 28.050781 30.382812 C 27.925781 30.367188 27.796875 30.351562 27.671875 30.335938 C 27.542969 30.324219 27.410156 30.3125 27.28125 30.300781 C 27.148438 30.289062 27.019531 30.28125 26.886719 30.273438 C 26.753906 30.265625 26.617188 30.253906 26.480469 30.25 C 26.347656 30.246094 26.210938 30.242188 26.074219 30.234375 C 25.941406 30.230469 25.804688 30.234375 25.664062 30.230469 C 25.527344 30.230469 25.390625 30.230469 25.253906 30.234375 C 25.113281 30.238281 24.976562 30.242188 24.835938 30.246094 C 24.558594 30.261719 24.28125 30.273438 24.003906 30.300781 C 23.867188 30.3125 23.730469 30.324219 23.589844 30.339844 C 23.453125 30.355469 23.316406 30.371094 23.179688 30.386719 C 23.042969 30.40625 22.90625 30.425781 22.769531 30.445312 C 22.636719 30.464844 22.5 30.492188 22.367188 30.515625 C 22.300781 30.527344 22.234375 30.539062 22.167969 30.550781 C 22.101562 30.5625 22.035156 30.574219 21.96875 30.589844 C 21.835938 30.617188 21.703125 30.640625 21.574219 30.671875 C 21.316406 30.734375 21.0625 30.789062 20.8125 30.863281 C 20.5625 30.925781 20.324219 31.003906 20.085938 31.074219 C 19.96875 31.113281 19.855469 31.152344 19.738281 31.1875 C 19.683594 31.207031 19.625 31.226562 19.566406 31.246094 C 19.511719 31.265625 19.457031 31.289062 19.402344 31.308594 C 19.292969 31.347656 19.183594 31.386719 19.078125 31.429688 C 18.972656 31.472656 18.867188 31.511719 18.765625 31.554688 C 18.558594 31.636719 18.367188 31.726562 18.183594 31.808594 C 17.996094 31.890625 17.820312 31.980469 17.652344 32.058594 C 17.488281 32.140625 17.335938 32.226562 17.1875 32.300781 C 17.042969 32.382812 16.910156 32.457031 16.785156 32.527344 C 16.722656 32.5625 16.664062 32.597656 16.613281 32.628906 C 16.558594 32.664062 16.507812 32.695312 16.457031 32.722656 C 16.265625 32.835938 16.097656 32.953125 15.988281 33.023438 C 15.875 33.097656 15.816406 33.136719 15.816406 33.136719 L 14.898438 31.574219 " fill-opacity="1" fill-rule="nonzero"/></g><path fill="#53afe6" d="M 32.515625 28.085938 C 32.472656 28.042969 32.421875 27.988281 32.363281 27.929688 C 32.335938 27.898438 32.304688 27.867188 32.269531 27.832031 C 32.234375 27.796875 32.199219 27.761719 32.160156 27.722656 C 32.082031 27.648438 31.996094 27.5625 31.898438 27.472656 C 31.800781 27.382812 31.699219 27.285156 31.585938 27.183594 C 31.359375 26.980469 31.101562 26.753906 30.808594 26.515625 C 30.769531 26.488281 30.734375 26.457031 30.699219 26.425781 C 30.660156 26.394531 30.621094 26.367188 30.582031 26.335938 C 30.503906 26.277344 30.425781 26.214844 30.34375 26.152344 C 30.265625 26.089844 30.179688 26.03125 30.097656 25.96875 C 30.011719 25.910156 29.925781 25.84375 29.839844 25.78125 C 29.75 25.722656 29.65625 25.660156 29.566406 25.597656 C 29.519531 25.5625 29.472656 25.53125 29.429688 25.5 C 29.382812 25.472656 29.332031 25.441406 29.285156 25.410156 C 29.191406 25.347656 29.09375 25.285156 28.996094 25.222656 C 28.894531 25.164062 28.792969 25.101562 28.695312 25.039062 C 28.59375 24.976562 28.488281 24.917969 28.382812 24.859375 C 28.28125 24.800781 28.175781 24.738281 28.066406 24.683594 C 27.957031 24.625 27.847656 24.566406 27.738281 24.507812 C 27.632812 24.449219 27.515625 24.398438 27.40625 24.34375 C 27.292969 24.285156 27.179688 24.230469 27.066406 24.179688 C 26.953125 24.128906 26.835938 24.074219 26.722656 24.023438 C 26.488281 23.925781 26.253906 23.824219 26.015625 23.734375 C 25.894531 23.6875 25.777344 23.640625 25.65625 23.601562 C 25.535156 23.558594 25.414062 23.515625 25.292969 23.472656 C 25.171875 23.433594 25.050781 23.394531 24.929688 23.355469 C 24.808594 23.316406 24.6875 23.285156 24.566406 23.25 C 24.507812 23.230469 24.445312 23.214844 24.382812 23.199219 C 24.324219 23.179688 24.261719 23.164062 24.203125 23.148438 C 24.082031 23.121094 23.960938 23.085938 23.839844 23.058594 C 23.597656 23.003906 23.355469 22.949219 23.121094 22.90625 C 22.882812 22.855469 22.648438 22.824219 22.417969 22.785156 C 22.300781 22.765625 22.1875 22.753906 22.074219 22.738281 C 22.015625 22.730469 21.960938 22.726562 21.90625 22.71875 C 21.847656 22.710938 21.792969 22.707031 21.738281 22.699219 C 21.625 22.6875 21.515625 22.679688 21.410156 22.667969 C 21.300781 22.660156 21.195312 22.652344 21.089844 22.648438 C 20.878906 22.632812 20.675781 22.628906 20.480469 22.621094 C 20.375 22.617188 20.273438 22.617188 20.171875 22.617188 L 18.160156 24.332031 C 18.160156 24.332031 18.222656 24.320312 18.335938 24.292969 C 18.445312 24.269531 18.621094 24.226562 18.8125 24.191406 C 18.863281 24.179688 18.917969 24.167969 18.96875 24.160156 C 19.023438 24.148438 19.082031 24.136719 19.144531 24.128906 C 19.265625 24.109375 19.402344 24.085938 19.542969 24.0625 C 19.6875 24.046875 19.839844 24.023438 20 24.003906 C 20.164062 23.992188 20.332031 23.96875 20.511719 23.957031 C 20.691406 23.949219 20.875 23.933594 21.070312 23.925781 C 21.167969 23.925781 21.265625 23.921875 21.363281 23.917969 C 21.464844 23.917969 21.566406 23.917969 21.667969 23.917969 C 21.722656 23.917969 21.773438 23.917969 21.824219 23.917969 C 21.878906 23.917969 21.929688 23.921875 21.984375 23.921875 C 22.089844 23.925781 22.195312 23.929688 22.304688 23.933594 C 22.519531 23.945312 22.742188 23.957031 22.964844 23.980469 C 23.191406 23.996094 23.417969 24.027344 23.652344 24.054688 C 23.765625 24.070312 23.882812 24.089844 24 24.109375 C 24.058594 24.117188 24.117188 24.125 24.175781 24.132812 C 24.234375 24.144531 24.292969 24.15625 24.351562 24.167969 C 24.46875 24.1875 24.585938 24.207031 24.703125 24.234375 C 24.820312 24.257812 24.9375 24.285156 25.058594 24.308594 C 25.175781 24.335938 25.292969 24.367188 25.410156 24.394531 C 25.527344 24.421875 25.644531 24.457031 25.761719 24.488281 C 25.996094 24.550781 26.230469 24.625 26.460938 24.695312 C 26.578125 24.734375 26.695312 24.773438 26.808594 24.8125 C 26.921875 24.851562 27.035156 24.894531 27.148438 24.933594 C 27.261719 24.980469 27.375 25.019531 27.484375 25.0625 C 27.59375 25.109375 27.707031 25.152344 27.816406 25.199219 C 27.925781 25.242188 28.03125 25.292969 28.140625 25.339844 C 28.246094 25.386719 28.351562 25.433594 28.457031 25.484375 C 28.5625 25.53125 28.664062 25.582031 28.765625 25.628906 C 28.867188 25.683594 28.96875 25.734375 29.066406 25.785156 C 29.113281 25.808594 29.164062 25.832031 29.210938 25.859375 C 29.261719 25.886719 29.308594 25.910156 29.355469 25.9375 C 29.453125 25.988281 29.546875 26.042969 29.640625 26.09375 C 29.730469 26.144531 29.820312 26.199219 29.910156 26.25 C 30 26.304688 30.089844 26.351562 30.171875 26.40625 C 30.257812 26.460938 30.339844 26.511719 30.421875 26.5625 C 30.460938 26.585938 30.503906 26.613281 30.542969 26.636719 C 30.582031 26.664062 30.621094 26.691406 30.660156 26.714844 C 30.96875 26.917969 31.25 27.117188 31.492188 27.296875 C 31.613281 27.386719 31.726562 27.472656 31.832031 27.550781 C 31.933594 27.632812 32.027344 27.707031 32.113281 27.777344 C 32.15625 27.808594 32.195312 27.839844 32.234375 27.871094 C 32.269531 27.902344 32.304688 27.933594 32.335938 27.960938 C 32.402344 28.011719 32.457031 28.058594 32.5 28.097656 C 32.589844 28.171875 32.640625 28.210938 32.640625 28.210938 C 32.640625 28.210938 32.59375 28.167969 32.515625 28.085938 " fill-opacity="1" fill-rule="nonzero"/><path fill="#3a6ab9" d="M 32.472656 30.15625 C 32.417969 30.117188 32.351562 30.066406 32.273438 30.011719 C 32.234375 29.980469 32.191406 29.953125 32.148438 29.917969 C 32.101562 29.886719 32.054688 29.855469 32 29.820312 C 31.898438 29.75 31.785156 29.671875 31.660156 29.585938 C 31.535156 29.507812 31.394531 29.417969 31.25 29.324219 C 30.957031 29.140625 30.621094 28.9375 30.246094 28.726562 C 30.199219 28.703125 30.152344 28.675781 30.101562 28.648438 C 30.054688 28.621094 30.003906 28.597656 29.957031 28.570312 C 29.855469 28.519531 29.757812 28.464844 29.652344 28.414062 C 29.550781 28.355469 29.445312 28.308594 29.335938 28.253906 C 29.230469 28.203125 29.121094 28.144531 29.011719 28.09375 C 28.898438 28.042969 28.785156 27.988281 28.667969 27.9375 C 28.609375 27.914062 28.550781 27.886719 28.492188 27.859375 C 28.433594 27.835938 28.375 27.808594 28.316406 27.785156 C 28.195312 27.734375 28.074219 27.683594 27.953125 27.632812 C 27.828125 27.582031 27.703125 27.535156 27.578125 27.484375 C 27.453125 27.433594 27.324219 27.390625 27.195312 27.34375 C 27.066406 27.296875 26.9375 27.25 26.800781 27.207031 C 26.671875 27.164062 26.539062 27.121094 26.402344 27.078125 C 26.269531 27.03125 26.132812 26.996094 25.996094 26.953125 C 25.859375 26.914062 25.71875 26.875 25.582031 26.839844 C 25.441406 26.800781 25.300781 26.765625 25.164062 26.730469 C 24.878906 26.664062 24.597656 26.597656 24.3125 26.542969 C 24.167969 26.515625 24.023438 26.488281 23.882812 26.464844 C 23.738281 26.441406 23.59375 26.414062 23.453125 26.394531 C 23.308594 26.375 23.164062 26.351562 23.019531 26.332031 C 22.875 26.3125 22.730469 26.300781 22.589844 26.285156 C 22.515625 26.277344 22.445312 26.269531 22.375 26.257812 C 22.304688 26.253906 22.230469 26.25 22.160156 26.242188 C 22.019531 26.230469 21.878906 26.21875 21.734375 26.210938 C 21.453125 26.199219 21.171875 26.179688 20.898438 26.179688 C 20.621094 26.171875 20.347656 26.179688 20.082031 26.183594 C 19.949219 26.1875 19.816406 26.195312 19.6875 26.199219 C 19.625 26.203125 19.558594 26.203125 19.496094 26.207031 C 19.429688 26.210938 19.367188 26.21875 19.304688 26.222656 C 19.175781 26.230469 19.050781 26.238281 18.929688 26.25 C 18.804688 26.261719 18.683594 26.277344 18.566406 26.289062 C 18.328125 26.308594 18.097656 26.347656 17.875 26.375 C 17.65625 26.40625 17.445312 26.449219 17.246094 26.480469 C 17.15625 26.5 17.070312 26.515625 16.984375 26.53125 L 15.609375 28.753906 C 15.609375 28.753906 15.675781 28.726562 15.796875 28.675781 C 15.917969 28.628906 16.105469 28.542969 16.316406 28.46875 C 16.367188 28.445312 16.425781 28.425781 16.484375 28.402344 C 16.542969 28.378906 16.605469 28.355469 16.671875 28.332031 C 16.808594 28.285156 16.953125 28.234375 17.109375 28.183594 C 17.265625 28.136719 17.433594 28.078125 17.613281 28.027344 C 17.792969 27.980469 17.980469 27.921875 18.175781 27.875 C 18.375 27.828125 18.578125 27.773438 18.796875 27.730469 C 18.90625 27.710938 19.015625 27.6875 19.125 27.664062 C 19.238281 27.644531 19.351562 27.621094 19.46875 27.601562 C 19.527344 27.59375 19.585938 27.582031 19.644531 27.574219 C 19.699219 27.5625 19.761719 27.554688 19.820312 27.546875 C 19.941406 27.527344 20.058594 27.511719 20.183594 27.496094 C 20.429688 27.46875 20.679688 27.433594 20.9375 27.417969 C 21.191406 27.390625 21.453125 27.378906 21.722656 27.367188 C 21.851562 27.363281 21.988281 27.359375 22.121094 27.359375 C 22.1875 27.355469 22.257812 27.351562 22.324219 27.351562 C 22.390625 27.355469 22.460938 27.355469 22.527344 27.355469 C 22.664062 27.359375 22.800781 27.355469 22.9375 27.359375 C 23.074219 27.367188 23.210938 27.371094 23.347656 27.378906 C 23.488281 27.382812 23.625 27.394531 23.761719 27.40625 C 23.902344 27.410156 24.039062 27.425781 24.179688 27.4375 C 24.457031 27.464844 24.730469 27.5 25.003906 27.535156 C 25.144531 27.558594 25.28125 27.578125 25.417969 27.601562 C 25.554688 27.621094 25.6875 27.644531 25.824219 27.671875 C 25.957031 27.695312 26.09375 27.71875 26.226562 27.746094 C 26.359375 27.777344 26.492188 27.804688 26.625 27.835938 C 26.753906 27.863281 26.886719 27.898438 27.015625 27.929688 C 27.144531 27.960938 27.273438 27.992188 27.398438 28.027344 C 27.527344 28.066406 27.652344 28.097656 27.777344 28.136719 C 27.898438 28.171875 28.019531 28.210938 28.144531 28.246094 C 28.203125 28.265625 28.261719 28.285156 28.324219 28.304688 C 28.382812 28.324219 28.441406 28.34375 28.5 28.363281 C 28.617188 28.402344 28.734375 28.441406 28.847656 28.480469 C 28.960938 28.523438 29.074219 28.566406 29.183594 28.605469 C 29.292969 28.648438 29.402344 28.6875 29.507812 28.730469 C 29.617188 28.773438 29.71875 28.8125 29.820312 28.855469 C 29.871094 28.878906 29.921875 28.898438 29.972656 28.917969 C 30.023438 28.9375 30.070312 28.960938 30.117188 28.980469 C 30.507812 29.148438 30.859375 29.316406 31.167969 29.46875 C 31.320312 29.546875 31.464844 29.621094 31.597656 29.691406 C 31.730469 29.761719 31.851562 29.828125 31.960938 29.886719 C 32.015625 29.914062 32.066406 29.945312 32.113281 29.96875 C 32.160156 30 32.207031 30.023438 32.25 30.050781 C 32.332031 30.097656 32.402344 30.136719 32.460938 30.171875 C 32.574219 30.238281 32.636719 30.273438 32.636719 30.273438 C 32.636719 30.273438 32.578125 30.234375 32.472656 30.15625 " fill-opacity="1" fill-rule="nonzero"/><g clip-path="url(#79c477fb1a)"><path fill="#274082" d="M 51.351562 31.574219 C 51.351562 31.574219 51.292969 31.539062 51.171875 31.480469 C 51.050781 31.417969 50.890625 31.328125 50.640625 31.210938 C 50.578125 31.183594 50.515625 31.152344 50.449219 31.121094 C 50.382812 31.085938 50.3125 31.054688 50.242188 31.023438 C 50.097656 30.960938 49.941406 30.890625 49.773438 30.820312 C 49.605469 30.75 49.425781 30.679688 49.238281 30.605469 C 49.046875 30.535156 48.847656 30.457031 48.636719 30.386719 C 48.425781 30.320312 48.207031 30.242188 47.972656 30.175781 C 47.859375 30.144531 47.742188 30.109375 47.625 30.074219 C 47.503906 30.042969 47.382812 30.011719 47.261719 29.980469 C 47.199219 29.964844 47.136719 29.945312 47.074219 29.929688 C 47.011719 29.914062 46.949219 29.902344 46.886719 29.886719 C 46.757812 29.859375 46.628906 29.828125 46.5 29.800781 C 46.238281 29.75 45.972656 29.691406 45.699219 29.652344 C 45.429688 29.605469 45.152344 29.566406 44.871094 29.53125 C 44.730469 29.515625 44.589844 29.5 44.445312 29.484375 C 44.375 29.480469 44.304688 29.46875 44.230469 29.464844 C 44.160156 29.460938 44.089844 29.453125 44.019531 29.449219 C 43.875 29.441406 43.730469 29.425781 43.585938 29.421875 C 43.441406 29.414062 43.296875 29.40625 43.148438 29.402344 C 43.003906 29.398438 42.859375 29.398438 42.714844 29.394531 C 42.566406 29.390625 42.421875 29.390625 42.277344 29.394531 C 41.988281 29.398438 41.695312 29.410156 41.40625 29.425781 C 41.261719 29.4375 41.117188 29.445312 40.972656 29.457031 C 40.832031 29.464844 40.6875 29.480469 40.546875 29.496094 C 40.40625 29.511719 40.261719 29.523438 40.121094 29.542969 C 39.984375 29.5625 39.84375 29.582031 39.707031 29.597656 C 39.570312 29.617188 39.433594 29.644531 39.296875 29.664062 C 39.160156 29.683594 39.027344 29.707031 38.890625 29.734375 C 38.757812 29.761719 38.628906 29.785156 38.496094 29.808594 C 38.367188 29.839844 38.242188 29.867188 38.113281 29.894531 C 38.050781 29.910156 37.988281 29.925781 37.925781 29.9375 C 37.863281 29.953125 37.800781 29.96875 37.738281 29.984375 C 37.613281 30.015625 37.496094 30.046875 37.375 30.074219 C 37.253906 30.109375 37.140625 30.140625 37.023438 30.175781 C 36.910156 30.207031 36.792969 30.234375 36.683594 30.273438 C 36.570312 30.308594 36.464844 30.339844 36.355469 30.375 C 36.304688 30.390625 36.25 30.40625 36.199219 30.425781 C 36.144531 30.441406 36.097656 30.460938 36.046875 30.476562 C 35.636719 30.613281 35.269531 30.753906 34.945312 30.882812 C 34.785156 30.949219 34.636719 31.011719 34.496094 31.066406 C 34.359375 31.128906 34.234375 31.183594 34.121094 31.234375 C 34.0625 31.261719 34.007812 31.285156 33.957031 31.308594 C 33.910156 31.332031 33.863281 31.355469 33.816406 31.375 C 33.730469 31.414062 33.65625 31.453125 33.597656 31.480469 C 33.476562 31.539062 33.410156 31.570312 33.410156 31.570312 C 33.410156 31.570312 33.476562 31.542969 33.605469 31.5 C 33.667969 31.476562 33.746094 31.449219 33.835938 31.414062 C 33.878906 31.398438 33.929688 31.382812 33.980469 31.363281 C 34.035156 31.347656 34.089844 31.328125 34.148438 31.308594 C 34.265625 31.269531 34.394531 31.226562 34.539062 31.179688 C 34.683594 31.136719 34.835938 31.089844 35.003906 31.039062 C 35.332031 30.945312 35.710938 30.84375 36.125 30.75 C 36.171875 30.738281 36.226562 30.726562 36.28125 30.710938 C 36.332031 30.699219 36.386719 30.691406 36.4375 30.679688 C 36.546875 30.65625 36.65625 30.632812 36.769531 30.609375 C 36.878906 30.585938 36.996094 30.570312 37.109375 30.546875 C 37.226562 30.527344 37.34375 30.503906 37.460938 30.484375 C 37.582031 30.46875 37.703125 30.449219 37.828125 30.433594 C 37.886719 30.421875 37.949219 30.414062 38.011719 30.40625 C 38.074219 30.398438 38.136719 30.390625 38.199219 30.382812 C 38.324219 30.367188 38.453125 30.351562 38.582031 30.335938 C 38.707031 30.324219 38.839844 30.3125 38.96875 30.300781 C 39.101562 30.289062 39.234375 30.28125 39.367188 30.273438 C 39.5 30.265625 39.632812 30.253906 39.769531 30.25 C 39.902344 30.246094 40.039062 30.242188 40.175781 30.234375 C 40.3125 30.230469 40.449219 30.234375 40.585938 30.230469 C 40.722656 30.230469 40.859375 30.230469 41 30.234375 C 41.136719 30.238281 41.277344 30.242188 41.414062 30.246094 C 41.691406 30.261719 41.96875 30.273438 42.246094 30.300781 C 42.382812 30.3125 42.523438 30.324219 42.660156 30.339844 C 42.796875 30.355469 42.933594 30.371094 43.070312 30.386719 C 43.207031 30.40625 43.34375 30.425781 43.480469 30.445312 C 43.617188 30.464844 43.75 30.492188 43.882812 30.515625 C 43.949219 30.527344 44.019531 30.539062 44.085938 30.550781 C 44.152344 30.5625 44.21875 30.574219 44.28125 30.589844 C 44.414062 30.617188 44.546875 30.640625 44.675781 30.671875 C 44.933594 30.734375 45.1875 30.789062 45.4375 30.863281 C 45.6875 30.925781 45.929688 31.003906 46.164062 31.074219 C 46.28125 31.113281 46.398438 31.152344 46.511719 31.1875 C 46.570312 31.207031 46.625 31.226562 46.683594 31.246094 C 46.738281 31.265625 46.792969 31.289062 46.847656 31.308594 C 46.957031 31.347656 47.066406 31.386719 47.175781 31.429688 C 47.277344 31.472656 47.382812 31.511719 47.484375 31.554688 C 47.691406 31.636719 47.882812 31.726562 48.070312 31.808594 C 48.253906 31.890625 48.429688 31.980469 48.597656 32.058594 C 48.761719 32.140625 48.917969 32.226562 49.0625 32.300781 C 49.207031 32.382812 49.339844 32.457031 49.464844 32.527344 C 49.527344 32.5625 49.585938 32.597656 49.636719 32.628906 C 49.691406 32.664062 49.746094 32.695312 49.792969 32.722656 C 49.984375 32.835938 50.152344 32.953125 50.265625 33.023438 C 50.375 33.097656 50.4375 33.136719 50.4375 33.136719 L 51.351562 31.574219 " fill-opacity="1" fill-rule="nonzero"/></g><path fill="#53afe6" d="M 33.734375 28.085938 C 33.777344 28.042969 33.828125 27.988281 33.886719 27.929688 C 33.917969 27.898438 33.949219 27.867188 33.980469 27.832031 C 34.015625 27.796875 34.054688 27.761719 34.09375 27.722656 C 34.171875 27.648438 34.257812 27.5625 34.351562 27.472656 C 34.449219 27.382812 34.554688 27.285156 34.664062 27.183594 C 34.890625 26.980469 35.152344 26.753906 35.445312 26.515625 C 35.480469 26.488281 35.515625 26.457031 35.554688 26.425781 C 35.59375 26.394531 35.632812 26.367188 35.667969 26.335938 C 35.746094 26.277344 35.824219 26.214844 35.90625 26.152344 C 35.984375 26.089844 36.070312 26.03125 36.152344 25.96875 C 36.242188 25.910156 36.324219 25.84375 36.414062 25.78125 C 36.503906 25.722656 36.59375 25.660156 36.683594 25.597656 C 36.730469 25.5625 36.777344 25.53125 36.824219 25.5 C 36.871094 25.472656 36.917969 25.441406 36.964844 25.410156 C 37.0625 25.347656 37.160156 25.285156 37.257812 25.222656 C 37.355469 25.164062 37.457031 25.101562 37.558594 25.039062 C 37.65625 24.976562 37.761719 24.917969 37.867188 24.859375 C 37.972656 24.800781 38.078125 24.738281 38.183594 24.683594 C 38.292969 24.625 38.402344 24.566406 38.511719 24.507812 C 38.621094 24.449219 38.734375 24.398438 38.84375 24.34375 C 38.957031 24.285156 39.070312 24.230469 39.183594 24.179688 C 39.300781 24.128906 39.414062 24.074219 39.53125 24.023438 C 39.761719 23.925781 39.996094 23.824219 40.234375 23.734375 C 40.355469 23.6875 40.476562 23.640625 40.59375 23.601562 C 40.714844 23.558594 40.835938 23.515625 40.957031 23.472656 C 41.078125 23.433594 41.199219 23.394531 41.320312 23.355469 C 41.441406 23.316406 41.5625 23.285156 41.683594 23.25 C 41.746094 23.230469 41.804688 23.214844 41.867188 23.199219 C 41.929688 23.179688 41.988281 23.164062 42.046875 23.148438 C 42.171875 23.121094 42.289062 23.085938 42.414062 23.058594 C 42.652344 23.003906 42.894531 22.949219 43.128906 22.90625 C 43.367188 22.855469 43.601562 22.824219 43.835938 22.785156 C 43.949219 22.765625 44.066406 22.753906 44.175781 22.738281 C 44.234375 22.730469 44.289062 22.726562 44.347656 22.71875 C 44.402344 22.710938 44.457031 22.707031 44.511719 22.699219 C 44.625 22.6875 44.734375 22.679688 44.839844 22.667969 C 44.949219 22.660156 45.054688 22.652344 45.160156 22.648438 C 45.371094 22.632812 45.574219 22.628906 45.769531 22.621094 C 45.875 22.617188 45.980469 22.617188 46.082031 22.617188 L 48.089844 24.332031 C 48.089844 24.332031 48.03125 24.320312 47.917969 24.292969 C 47.804688 24.269531 47.628906 24.226562 47.4375 24.191406 C 47.386719 24.179688 47.335938 24.167969 47.28125 24.160156 C 47.226562 24.148438 47.167969 24.136719 47.105469 24.128906 C 46.984375 24.109375 46.851562 24.085938 46.707031 24.0625 C 46.5625 24.046875 46.410156 24.023438 46.25 24.003906 C 46.089844 23.992188 45.917969 23.96875 45.738281 23.957031 C 45.558594 23.949219 45.375 23.933594 45.179688 23.925781 C 45.082031 23.925781 44.984375 23.921875 44.886719 23.917969 C 44.785156 23.917969 44.683594 23.917969 44.582031 23.917969 C 44.53125 23.917969 44.480469 23.917969 44.425781 23.917969 C 44.375 23.917969 44.320312 23.921875 44.269531 23.921875 C 44.164062 23.925781 44.058594 23.929688 43.949219 23.933594 C 43.730469 23.945312 43.507812 23.957031 43.285156 23.980469 C 43.058594 23.996094 42.832031 24.027344 42.601562 24.054688 C 42.484375 24.070312 42.367188 24.089844 42.253906 24.109375 C 42.195312 24.117188 42.132812 24.125 42.074219 24.132812 C 42.015625 24.144531 41.957031 24.15625 41.898438 24.167969 C 41.785156 24.1875 41.664062 24.207031 41.546875 24.234375 C 41.429688 24.257812 41.3125 24.285156 41.195312 24.308594 C 41.078125 24.335938 40.960938 24.367188 40.839844 24.394531 C 40.722656 24.421875 40.605469 24.457031 40.488281 24.488281 C 40.253906 24.550781 40.019531 24.625 39.789062 24.695312 C 39.671875 24.734375 39.558594 24.773438 39.441406 24.8125 C 39.328125 24.851562 39.214844 24.894531 39.101562 24.933594 C 38.988281 24.980469 38.875 25.019531 38.765625 25.0625 C 38.65625 25.109375 38.542969 25.152344 38.4375 25.199219 C 38.324219 25.242188 38.21875 25.292969 38.113281 25.339844 C 38.003906 25.386719 37.898438 25.433594 37.796875 25.484375 C 37.691406 25.53125 37.585938 25.582031 37.484375 25.628906 C 37.382812 25.683594 37.285156 25.734375 37.1875 25.785156 C 37.136719 25.808594 37.085938 25.832031 37.039062 25.859375 C 36.988281 25.886719 36.941406 25.910156 36.894531 25.9375 C 36.800781 25.988281 36.707031 26.042969 36.613281 26.09375 C 36.519531 26.144531 36.429688 26.199219 36.339844 26.25 C 36.253906 26.304688 36.164062 26.351562 36.078125 26.40625 C 35.996094 26.460938 35.910156 26.511719 35.828125 26.5625 C 35.789062 26.585938 35.746094 26.613281 35.707031 26.636719 C 35.667969 26.664062 35.628906 26.691406 35.589844 26.714844 C 35.28125 26.917969 35.003906 27.117188 34.757812 27.296875 C 34.636719 27.386719 34.523438 27.472656 34.421875 27.550781 C 34.316406 27.632812 34.222656 27.707031 34.136719 27.777344 C 34.09375 27.808594 34.054688 27.839844 34.015625 27.871094 C 33.980469 27.902344 33.945312 27.933594 33.914062 27.960938 C 33.847656 28.011719 33.792969 28.058594 33.75 28.097656 C 33.660156 28.171875 33.613281 28.210938 33.613281 28.210938 C 33.613281 28.210938 33.65625 28.167969 33.734375 28.085938 " fill-opacity="1" fill-rule="nonzero"/><path fill="#3a6ab9" d="M 33.78125 30.15625 C 33.832031 30.117188 33.902344 30.066406 33.976562 30.011719 C 34.015625 29.980469 34.058594 29.953125 34.105469 29.917969 C 34.152344 29.886719 34.199219 29.855469 34.25 29.820312 C 34.355469 29.75 34.46875 29.671875 34.589844 29.585938 C 34.71875 29.507812 34.855469 29.417969 35 29.324219 C 35.292969 29.140625 35.632812 28.9375 36.007812 28.726562 C 36.054688 28.703125 36.101562 28.675781 36.148438 28.648438 C 36.195312 28.621094 36.246094 28.597656 36.296875 28.570312 C 36.394531 28.519531 36.496094 28.464844 36.597656 28.414062 C 36.699219 28.355469 36.804688 28.308594 36.914062 28.253906 C 37.019531 28.203125 37.128906 28.144531 37.242188 28.09375 C 37.355469 28.042969 37.46875 27.988281 37.582031 27.9375 C 37.640625 27.914062 37.699219 27.886719 37.757812 27.859375 C 37.816406 27.835938 37.875 27.808594 37.933594 27.785156 C 38.054688 27.734375 38.175781 27.683594 38.296875 27.632812 C 38.421875 27.582031 38.546875 27.535156 38.671875 27.484375 C 38.796875 27.433594 38.925781 27.390625 39.054688 27.34375 C 39.1875 27.296875 39.316406 27.25 39.449219 27.207031 C 39.578125 27.164062 39.714844 27.121094 39.847656 27.078125 C 39.984375 27.03125 40.121094 26.996094 40.253906 26.953125 C 40.390625 26.914062 40.53125 26.875 40.671875 26.839844 C 40.808594 26.800781 40.949219 26.765625 41.089844 26.730469 C 41.371094 26.664062 41.652344 26.597656 41.9375 26.542969 C 42.082031 26.515625 42.226562 26.488281 42.371094 26.464844 C 42.511719 26.441406 42.65625 26.414062 42.800781 26.394531 C 42.945312 26.375 43.089844 26.351562 43.230469 26.332031 C 43.375 26.3125 43.519531 26.300781 43.660156 26.285156 C 43.734375 26.277344 43.804688 26.269531 43.875 26.257812 C 43.949219 26.253906 44.019531 26.25 44.089844 26.242188 C 44.230469 26.230469 44.375 26.21875 44.515625 26.210938 C 44.800781 26.199219 45.078125 26.179688 45.355469 26.179688 C 45.628906 26.171875 45.902344 26.179688 46.167969 26.183594 C 46.300781 26.1875 46.433594 26.195312 46.5625 26.199219 C 46.628906 26.203125 46.691406 26.203125 46.753906 26.207031 C 46.820312 26.210938 46.882812 26.21875 46.949219 26.222656 C 47.074219 26.230469 47.199219 26.238281 47.324219 26.25 C 47.445312 26.261719 47.566406 26.277344 47.683594 26.289062 C 47.925781 26.308594 48.152344 26.347656 48.375 26.375 C 48.59375 26.40625 48.804688 26.449219 49.003906 26.480469 C 49.09375 26.5 49.179688 26.515625 49.265625 26.53125 L 50.644531 28.753906 C 50.644531 28.753906 50.574219 28.726562 50.453125 28.675781 C 50.332031 28.628906 50.144531 28.542969 49.9375 28.46875 C 49.882812 28.445312 49.824219 28.425781 49.765625 28.402344 C 49.707031 28.378906 49.644531 28.355469 49.578125 28.332031 C 49.445312 28.285156 49.296875 28.234375 49.140625 28.183594 C 48.984375 28.136719 48.816406 28.078125 48.640625 28.027344 C 48.460938 27.980469 48.273438 27.921875 48.074219 27.875 C 47.878906 27.828125 47.671875 27.773438 47.453125 27.730469 C 47.347656 27.710938 47.238281 27.6875 47.125 27.664062 C 47.011719 27.644531 46.898438 27.621094 46.785156 27.601562 C 46.726562 27.59375 46.667969 27.582031 46.609375 27.574219 C 46.550781 27.5625 46.492188 27.554688 46.429688 27.546875 C 46.3125 27.527344 46.191406 27.511719 46.070312 27.496094 C 45.824219 27.46875 45.570312 27.433594 45.3125 27.417969 C 45.058594 27.390625 44.796875 27.378906 44.53125 27.367188 C 44.398438 27.363281 44.265625 27.359375 44.128906 27.359375 C 44.0625 27.355469 43.996094 27.351562 43.925781 27.351562 C 43.859375 27.355469 43.792969 27.355469 43.722656 27.355469 C 43.589844 27.359375 43.449219 27.355469 43.3125 27.359375 C 43.175781 27.367188 43.039062 27.371094 42.902344 27.378906 C 42.761719 27.382812 42.625 27.394531 42.488281 27.40625 C 42.347656 27.410156 42.210938 27.425781 42.074219 27.4375 C 41.796875 27.464844 41.519531 27.5 41.246094 27.535156 C 41.109375 27.558594 40.972656 27.578125 40.835938 27.601562 C 40.699219 27.621094 40.5625 27.644531 40.429688 27.671875 C 40.292969 27.695312 40.160156 27.71875 40.023438 27.746094 C 39.890625 27.777344 39.757812 27.804688 39.625 27.835938 C 39.496094 27.863281 39.367188 27.898438 39.234375 27.929688 C 39.105469 27.960938 38.980469 27.992188 38.851562 28.027344 C 38.726562 28.066406 38.601562 28.097656 38.476562 28.136719 C 38.351562 28.171875 38.230469 28.210938 38.109375 28.246094 C 38.046875 28.265625 37.988281 28.285156 37.925781 28.304688 C 37.867188 28.324219 37.808594 28.34375 37.75 28.363281 C 37.632812 28.402344 37.519531 28.441406 37.402344 28.480469 C 37.289062 28.523438 37.179688 28.566406 37.066406 28.605469 C 36.957031 28.648438 36.847656 28.6875 36.742188 28.730469 C 36.636719 28.773438 36.53125 28.8125 36.429688 28.855469 C 36.378906 28.878906 36.328125 28.898438 36.28125 28.917969 C 36.230469 28.9375 36.179688 28.960938 36.132812 28.980469 C 35.742188 29.148438 35.390625 29.316406 35.082031 29.46875 C 34.929688 29.546875 34.785156 29.621094 34.652344 29.691406 C 34.519531 29.761719 34.402344 29.828125 34.292969 29.886719 C 34.238281 29.914062 34.183594 29.945312 34.136719 29.96875 C 34.089844 30 34.046875 30.023438 34.003906 30.050781 C 33.917969 30.097656 33.847656 30.136719 33.792969 30.171875 C 33.675781 30.238281 33.613281 30.273438 33.613281 30.273438 C 33.613281 30.273438 33.671875 30.234375 33.78125 30.15625 " fill-opacity="1" fill-rule="nonzero"/><path fill="#274082" d="M 55.175781 24.679688 L 56.632812 24.679688 L 56.632812 30.035156 L 55.175781 30.035156 Z M 55.175781 24.679688 " fill-opacity="1" fill-rule="nonzero"/><path fill="#274082" d="M 60.320312 30.035156 L 60.320312 27.773438 C 60.320312 27.496094 60.277344 27.289062 60.195312 27.148438 C 60.117188 27.007812 59.992188 26.933594 59.820312 26.933594 C 59.574219 26.933594 59.398438 27.03125 59.292969 27.226562 C 59.183594 27.417969 59.128906 27.75 59.128906 28.222656 L 59.128906 30.035156 L 57.699219 30.035156 L 57.699219 25.886719 L 58.78125 25.886719 L 58.960938 26.394531 L 59.046875 26.394531 C 59.167969 26.199219 59.335938 26.054688 59.554688 25.960938 C 59.769531 25.859375 60.019531 25.808594 60.300781 25.808594 C 60.757812 25.808594 61.113281 25.945312 61.367188 26.214844 C 61.621094 26.476562 61.75 26.851562 61.75 27.335938 L 61.75 30.035156 Z M 60.320312 30.035156 " fill-opacity="1" fill-rule="nonzero"/><path fill="#274082" d="M 65.929688 28.761719 C 65.929688 29.203125 65.777344 29.539062 65.472656 29.769531 C 65.167969 29.996094 64.734375 30.105469 64.171875 30.105469 C 63.863281 30.105469 63.597656 30.089844 63.367188 30.054688 C 63.140625 30.023438 62.910156 29.96875 62.671875 29.878906 L 62.671875 28.730469 C 62.894531 28.828125 63.136719 28.910156 63.398438 28.976562 C 63.667969 29.039062 63.90625 29.066406 64.113281 29.066406 C 64.421875 29.066406 64.574219 29 64.574219 28.859375 C 64.574219 28.785156 64.53125 28.71875 64.445312 28.664062 C 64.359375 28.601562 64.109375 28.492188 63.691406 28.324219 C 63.308594 28.167969 63.042969 27.992188 62.894531 27.792969 C 62.738281 27.59375 62.664062 27.34375 62.664062 27.039062 C 62.664062 26.648438 62.816406 26.347656 63.113281 26.136719 C 63.414062 25.917969 63.832031 25.808594 64.375 25.808594 C 64.648438 25.808594 64.902344 25.839844 65.140625 25.902344 C 65.382812 25.960938 65.636719 26.050781 65.894531 26.160156 L 65.503906 27.085938 C 65.3125 27.003906 65.113281 26.929688 64.902344 26.871094 C 64.6875 26.808594 64.515625 26.777344 64.382812 26.777344 C 64.148438 26.777344 64.03125 26.835938 64.03125 26.953125 C 64.03125 27.023438 64.070312 27.085938 64.152344 27.136719 C 64.234375 27.183594 64.472656 27.285156 64.863281 27.433594 C 65.152344 27.558594 65.371094 27.675781 65.511719 27.792969 C 65.65625 27.90625 65.757812 28.039062 65.824219 28.195312 C 65.890625 28.351562 65.929688 28.539062 65.929688 28.761719 Z M 65.929688 28.761719 " fill-opacity="1" fill-rule="nonzero"/><path fill="#274082" d="M 68.757812 28.976562 C 68.945312 28.976562 69.175781 28.929688 69.445312 28.832031 L 69.445312 29.878906 C 69.253906 29.960938 69.070312 30.019531 68.890625 30.054688 C 68.71875 30.089844 68.515625 30.105469 68.28125 30.105469 C 67.800781 30.105469 67.453125 29.988281 67.242188 29.753906 C 67.027344 29.523438 66.921875 29.160156 66.921875 28.671875 L 66.921875 26.960938 L 66.421875 26.960938 L 66.421875 26.375 L 67.058594 25.925781 L 67.429688 25.054688 L 68.367188 25.054688 L 68.367188 25.886719 L 69.386719 25.886719 L 69.386719 26.960938 L 68.367188 26.960938 L 68.367188 28.574219 C 68.367188 28.84375 68.496094 28.976562 68.757812 28.976562 Z M 68.757812 28.976562 " fill-opacity="1" fill-rule="nonzero"/><path fill="#274082" d="M 71.613281 30.035156 L 70.175781 30.035156 L 70.175781 25.886719 L 71.613281 25.886719 Z M 70.144531 24.855469 C 70.144531 24.636719 70.203125 24.476562 70.320312 24.375 C 70.441406 24.269531 70.632812 24.21875 70.898438 24.21875 C 71.167969 24.21875 71.359375 24.273438 71.484375 24.378906 C 71.601562 24.484375 71.664062 24.644531 71.664062 24.855469 C 71.664062 25.277344 71.410156 25.484375 70.898438 25.484375 C 70.394531 25.484375 70.144531 25.277344 70.144531 24.855469 Z M 70.144531 24.855469 " fill-opacity="1" fill-rule="nonzero"/><path fill="#274082" d="M 74.644531 28.976562 C 74.832031 28.976562 75.0625 28.929688 75.332031 28.832031 L 75.332031 29.878906 C 75.140625 29.960938 74.957031 30.019531 74.777344 30.054688 C 74.605469 30.089844 74.402344 30.105469 74.167969 30.105469 C 73.6875 30.105469 73.339844 29.988281 73.128906 29.753906 C 72.914062 29.523438 72.808594 29.160156 72.808594 28.671875 L 72.808594 26.960938 L 72.308594 26.960938 L 72.308594 26.375 L 72.945312 25.925781 L 73.316406 25.054688 L 74.253906 25.054688 L 74.253906 25.886719 L 75.273438 25.886719 L 75.273438 26.960938 L 74.253906 26.960938 L 74.253906 28.574219 C 74.253906 28.84375 74.382812 28.976562 74.644531 28.976562 Z M 74.644531 28.976562 " fill-opacity="1" fill-rule="nonzero"/><path fill="#274082" d="M 79.015625 30.035156 L 78.832031 29.523438 L 78.746094 29.523438 C 78.632812 29.714844 78.464844 29.859375 78.246094 29.957031 C 78.035156 30.054688 77.785156 30.105469 77.5 30.105469 C 77.039062 30.105469 76.683594 29.976562 76.425781 29.710938 C 76.175781 29.445312 76.050781 29.070312 76.050781 28.585938 L 76.050781 25.886719 L 77.480469 25.886719 L 77.480469 28.148438 C 77.480469 28.421875 77.519531 28.628906 77.597656 28.769531 C 77.675781 28.90625 77.800781 28.976562 77.972656 28.976562 C 78.222656 28.976562 78.398438 28.882812 78.5 28.691406 C 78.609375 28.496094 78.664062 28.167969 78.664062 27.703125 L 78.664062 25.886719 L 80.09375 25.886719 L 80.09375 30.035156 Z M 79.015625 30.035156 " fill-opacity="1" fill-rule="nonzero"/><path fill="#274082" d="M 83.113281 28.976562 C 83.304688 28.976562 83.535156 28.929688 83.804688 28.832031 L 83.804688 29.878906 C 83.613281 29.960938 83.429688 30.019531 83.25 30.054688 C 83.078125 30.089844 82.875 30.105469 82.640625 30.105469 C 82.160156 30.105469 81.8125 29.988281 81.601562 29.753906 C 81.386719 29.523438 81.28125 29.160156 81.28125 28.671875 L 81.28125 26.960938 L 80.78125 26.960938 L 80.78125 26.375 L 81.417969 25.925781 L 81.789062 25.054688 L 82.722656 25.054688 L 82.722656 25.886719 L 83.746094 25.886719 L 83.746094 26.960938 L 82.722656 26.960938 L 82.722656 28.574219 C 82.722656 28.84375 82.855469 28.976562 83.113281 28.976562 Z M 83.113281 28.976562 " fill-opacity="1" fill-rule="nonzero"/><path fill="#274082" d="M 86.53125 30.105469 C 85.839844 30.105469 85.304688 29.925781 84.917969 29.5625 C 84.535156 29.191406 84.347656 28.667969 84.347656 27.988281 C 84.347656 27.285156 84.523438 26.75 84.878906 26.375 C 85.234375 26 85.738281 25.808594 86.394531 25.808594 C 87.019531 25.808594 87.503906 25.976562 87.84375 26.304688 C 88.183594 26.628906 88.355469 27.097656 88.355469 27.707031 L 88.355469 28.34375 L 85.796875 28.34375 C 85.804688 28.578125 85.886719 28.765625 86.050781 28.898438 C 86.207031 29.027344 86.429688 29.09375 86.707031 29.09375 C 86.957031 29.09375 87.1875 29.070312 87.394531 29.019531 C 87.605469 28.972656 87.835938 28.890625 88.082031 28.773438 L 88.082031 29.808594 C 87.859375 29.921875 87.625 30 87.386719 30.042969 C 87.148438 30.082031 86.863281 30.105469 86.53125 30.105469 Z M 86.445312 26.785156 C 86.277344 26.785156 86.136719 26.839844 86.023438 26.949219 C 85.910156 27.050781 85.84375 27.21875 85.828125 27.449219 L 87.058594 27.449219 C 87.050781 27.246094 86.996094 27.085938 86.886719 26.96875 C 86.777344 26.847656 86.632812 26.785156 86.445312 26.785156 Z M 86.445312 26.785156 " fill-opacity="1" fill-rule="nonzero"/><path fill="#274082" d="M 95.074219 27.949219 C 95.074219 28.628906 94.890625 29.160156 94.523438 29.542969 C 94.160156 29.917969 93.648438 30.105469 92.996094 30.105469 C 92.363281 30.105469 91.859375 29.914062 91.488281 29.527344 C 91.113281 29.136719 90.929688 28.613281 90.929688 27.949219 C 90.929688 27.273438 91.109375 26.75 91.476562 26.375 C 91.84375 26 92.355469 25.808594 93.015625 25.808594 C 93.421875 25.808594 93.78125 25.898438 94.09375 26.070312 C 94.40625 26.242188 94.648438 26.492188 94.816406 26.816406 C 94.988281 27.144531 95.074219 27.519531 95.074219 27.949219 Z M 92.386719 27.949219 C 92.386719 28.308594 92.433594 28.582031 92.527344 28.769531 C 92.621094 28.953125 92.785156 29.046875 93.007812 29.046875 C 93.230469 29.046875 93.386719 28.953125 93.476562 28.769531 C 93.566406 28.582031 93.613281 28.308594 93.613281 27.949219 C 93.613281 27.597656 93.566406 27.332031 93.476562 27.148438 C 93.386719 26.96875 93.226562 26.875 93.003906 26.875 C 92.78125 26.875 92.621094 26.96875 92.527344 27.148438 C 92.433594 27.328125 92.386719 27.59375 92.386719 27.949219 Z M 92.386719 27.949219 " fill-opacity="1" fill-rule="nonzero"/><path fill="#274082" d="M 98.421875 26.960938 L 97.539062 26.960938 L 97.539062 30.035156 L 96.109375 30.035156 L 96.109375 26.960938 L 95.558594 26.960938 L 95.558594 26.253906 L 96.136719 25.902344 L 96.136719 25.835938 C 96.136719 25.285156 96.246094 24.890625 96.472656 24.652344 C 96.699219 24.414062 97.054688 24.296875 97.546875 24.296875 C 97.734375 24.296875 97.917969 24.3125 98.085938 24.339844 C 98.257812 24.371094 98.457031 24.421875 98.675781 24.492188 L 98.371094 25.421875 C 98.199219 25.371094 98.027344 25.347656 97.859375 25.347656 C 97.746094 25.347656 97.664062 25.382812 97.609375 25.453125 C 97.5625 25.519531 97.539062 25.625 97.539062 25.777344 L 97.539062 25.886719 L 98.421875 25.886719 Z M 98.421875 26.960938 " fill-opacity="1" fill-rule="nonzero"/><path fill="#274082" d="M 104.195312 30.035156 L 101.019531 30.035156 L 101.019531 24.679688 L 104.195312 24.679688 L 104.195312 25.84375 L 102.46875 25.84375 L 102.46875 26.679688 L 104.066406 26.679688 L 104.066406 27.84375 L 102.46875 27.84375 L 102.46875 28.859375 L 104.195312 28.859375 Z M 104.195312 30.035156 " fill-opacity="1" fill-rule="nonzero"/><path fill="#274082" d="M 105.925781 27.917969 L 104.660156 25.886719 L 106.289062 25.886719 L 106.914062 27.050781 L 107.5625 25.886719 L 109.1875 25.886719 L 107.890625 27.917969 L 109.242188 30.035156 L 107.617188 30.035156 L 106.914062 28.773438 L 106.21875 30.035156 L 104.59375 30.035156 Z M 105.925781 27.917969 " fill-opacity="1" fill-rule="nonzero"/><path fill="#274082" d="M 111.664062 30.105469 C 110.980469 30.105469 110.464844 29.925781 110.117188 29.5625 C 109.765625 29.191406 109.589844 28.667969 109.589844 27.980469 C 109.589844 27.292969 109.777344 26.757812 110.15625 26.382812 C 110.535156 26 111.074219 25.808594 111.773438 25.808594 C 112.253906 25.808594 112.707031 25.917969 113.132812 26.128906 L 112.714844 27.1875 C 112.542969 27.109375 112.382812 27.050781 112.234375 27.007812 C 112.085938 26.957031 111.933594 26.933594 111.773438 26.933594 C 111.542969 26.933594 111.363281 27.027344 111.234375 27.207031 C 111.105469 27.390625 111.046875 27.644531 111.046875 27.972656 C 111.046875 28.636719 111.289062 28.96875 111.78125 28.96875 C 112.199219 28.96875 112.601562 28.847656 112.988281 28.605469 L 112.988281 29.742188 C 112.621094 29.988281 112.179688 30.105469 111.664062 30.105469 Z M 111.664062 30.105469 " fill-opacity="1" fill-rule="nonzero"/><path fill="#274082" d="M 115.816406 30.105469 C 115.125 30.105469 114.589844 29.925781 114.203125 29.5625 C 113.820312 29.191406 113.632812 28.667969 113.632812 27.988281 C 113.632812 27.285156 113.808594 26.75 114.164062 26.375 C 114.519531 26 115.023438 25.808594 115.679688 25.808594 C 116.304688 25.808594 116.789062 25.976562 117.128906 26.304688 C 117.46875 26.628906 117.640625 27.097656 117.640625 27.707031 L 117.640625 28.34375 L 115.082031 28.34375 C 115.089844 28.578125 115.171875 28.765625 115.335938 28.898438 C 115.492188 29.027344 115.710938 29.09375 115.992188 29.09375 C 116.242188 29.09375 116.472656 29.070312 116.679688 29.019531 C 116.890625 28.972656 117.121094 28.890625 117.367188 28.773438 L 117.367188 29.808594 C 117.144531 29.921875 116.910156 30 116.671875 30.042969 C 116.433594 30.082031 116.148438 30.105469 115.816406 30.105469 Z M 115.730469 26.785156 C 115.5625 26.785156 115.421875 26.839844 115.308594 26.949219 C 115.195312 27.050781 115.128906 27.21875 115.113281 27.449219 L 116.339844 27.449219 C 116.335938 27.246094 116.28125 27.085938 116.171875 26.96875 C 116.0625 26.847656 115.914062 26.785156 115.730469 26.785156 Z M 115.730469 26.785156 " fill-opacity="1" fill-rule="nonzero"/><path fill="#274082" d="M 118.449219 24.335938 L 119.878906 24.335938 L 119.878906 30.035156 L 118.449219 30.035156 Z M 118.449219 24.335938 " fill-opacity="1" fill-rule="nonzero"/><path fill="#274082" d="M 120.871094 24.335938 L 122.300781 24.335938 L 122.300781 30.035156 L 120.871094 30.035156 Z M 120.871094 24.335938 " fill-opacity="1" fill-rule="nonzero"/><path fill="#274082" d="M 125.296875 30.105469 C 124.609375 30.105469 124.070312 29.925781 123.683594 29.5625 C 123.300781 29.191406 123.113281 28.667969 123.113281 27.988281 C 123.113281 27.285156 123.289062 26.75 123.644531 26.375 C 124 26 124.503906 25.808594 125.160156 25.808594 C 125.789062 25.808594 126.273438 25.976562 126.609375 26.304688 C 126.949219 26.628906 127.121094 27.097656 127.121094 27.707031 L 127.121094 28.34375 L 124.5625 28.34375 C 124.570312 28.578125 124.65625 28.765625 124.816406 28.898438 C 124.976562 29.027344 125.195312 29.09375 125.472656 29.09375 C 125.722656 29.09375 125.953125 29.070312 126.160156 29.019531 C 126.371094 28.972656 126.601562 28.890625 126.851562 28.773438 L 126.851562 29.808594 C 126.625 29.921875 126.390625 30 126.15625 30.042969 C 125.914062 30.082031 125.628906 30.105469 125.296875 30.105469 Z M 125.210938 26.785156 C 125.042969 26.785156 124.902344 26.839844 124.789062 26.949219 C 124.675781 27.050781 124.609375 27.21875 124.59375 27.449219 L 125.824219 27.449219 C 125.816406 27.246094 125.761719 27.085938 125.652344 26.96875 C 125.546875 26.847656 125.398438 26.785156 125.210938 26.785156 Z M 125.210938 26.785156 " fill-opacity="1" fill-rule="nonzero"/><path fill="#274082" d="M 130.550781 30.035156 L 130.550781 27.773438 C 130.550781 27.496094 130.507812 27.289062 130.425781 27.148438 C 130.347656 27.007812 130.222656 26.933594 130.046875 26.933594 C 129.804688 26.933594 129.628906 27.03125 129.523438 27.226562 C 129.414062 27.417969 129.359375 27.75 129.359375 28.222656 L 129.359375 30.035156 L 127.929688 30.035156 L 127.929688 25.886719 L 129.007812 25.886719 L 129.191406 26.394531 L 129.273438 26.394531 C 129.394531 26.199219 129.5625 26.054688 129.78125 25.960938 C 130 25.859375 130.246094 25.808594 130.53125 25.808594 C 130.988281 25.808594 131.34375 25.945312 131.59375 26.214844 C 131.851562 26.476562 131.980469 26.851562 131.980469 27.335938 L 131.980469 30.035156 Z M 130.550781 30.035156 " fill-opacity="1" fill-rule="nonzero"/><path fill="#274082" d="M 134.84375 30.105469 C 134.164062 30.105469 133.648438 29.925781 133.296875 29.5625 C 132.945312 29.191406 132.769531 28.667969 132.769531 27.980469 C 132.769531 27.292969 132.960938 26.757812 133.335938 26.382812 C 133.714844 26 134.257812 25.808594 134.953125 25.808594 C 135.4375 25.808594 135.886719 25.917969 136.3125 26.128906 L 135.898438 27.1875 C 135.722656 27.109375 135.5625 27.050781 135.417969 27.007812 C 135.269531 26.957031 135.113281 26.933594 134.953125 26.933594 C 134.722656 26.933594 134.546875 27.027344 134.414062 27.207031 C 134.289062 27.390625 134.226562 27.644531 134.226562 27.972656 C 134.226562 28.636719 134.46875 28.96875 134.960938 28.96875 C 135.378906 28.96875 135.785156 28.847656 136.171875 28.605469 L 136.171875 29.742188 C 135.800781 29.988281 135.359375 30.105469 134.84375 30.105469 Z M 134.84375 30.105469 " fill-opacity="1" fill-rule="nonzero"/><path fill="#274082" d="M 138.996094 30.105469 C 138.308594 30.105469 137.769531 29.925781 137.382812 29.5625 C 137.003906 29.191406 136.8125 28.667969 136.8125 27.988281 C 136.8125 27.285156 136.988281 26.75 137.34375 26.375 C 137.699219 26 138.203125 25.808594 138.859375 25.808594 C 139.488281 25.808594 139.972656 25.976562 140.308594 26.304688 C 140.652344 26.628906 140.824219 27.097656 140.824219 27.707031 L 140.824219 28.34375 L 138.261719 28.34375 C 138.269531 28.578125 138.355469 28.765625 138.515625 28.898438 C 138.675781 29.027344 138.894531 29.09375 139.171875 29.09375 C 139.421875 29.09375 139.652344 29.070312 139.859375 29.019531 C 140.070312 28.972656 140.300781 28.890625 140.550781 28.773438 L 140.550781 29.808594 C 140.324219 29.921875 140.089844 30 139.855469 30.042969 C 139.617188 30.082031 139.328125 30.105469 138.996094 30.105469 Z M 138.910156 26.785156 C 138.742188 26.785156 138.601562 26.839844 138.488281 26.949219 C 138.375 27.050781 138.308594 27.21875 138.292969 27.449219 L 139.523438 27.449219 C 139.519531 27.246094 139.460938 27.085938 139.355469 26.96875 C 139.246094 26.847656 139.097656 26.785156 138.910156 26.785156 Z M 138.910156 26.785156 " fill-opacity="1" fill-rule="nonzero"/><path fill="#274082" d="M 63.960938 20.851562 L 63.410156 18.765625 L 59.789062 18.765625 L 59.222656 20.851562 L 55.914062 20.851562 L 59.554688 9.65625 L 63.574219 9.65625 L 67.257812 20.851562 Z M 62.785156 16.289062 L 62.304688 14.460938 C 62.191406 14.054688 62.054688 13.527344 61.894531 12.882812 C 61.738281 12.238281 61.636719 11.773438 61.582031 11.492188 C 61.535156 11.75 61.445312 12.179688 61.3125 12.777344 C 61.175781 13.371094 60.875 14.542969 60.414062 16.289062 Z M 62.785156 16.289062 " fill-opacity="1" fill-rule="nonzero"/><path fill="#274082" d="M 73.722656 20.851562 L 73.722656 16.136719 C 73.722656 14.976562 73.378906 14.398438 72.695312 14.398438 C 72.203125 14.398438 71.84375 14.601562 71.609375 15.015625 C 71.378906 15.421875 71.265625 16.101562 71.265625 17.054688 L 71.265625 20.851562 L 68.28125 20.851562 L 68.28125 8.980469 L 71.265625 8.980469 L 71.265625 10.671875 C 71.265625 11.4375 71.222656 12.304688 71.140625 13.277344 L 71.285156 13.277344 C 71.5625 12.832031 71.902344 12.519531 72.289062 12.335938 C 72.683594 12.152344 73.140625 12.054688 73.664062 12.054688 C 74.628906 12.054688 75.378906 12.335938 75.910156 12.894531 C 76.449219 13.449219 76.71875 14.226562 76.71875 15.230469 L 76.71875 20.851562 Z M 73.722656 20.851562 " fill-opacity="1" fill-rule="nonzero"/><path fill="#274082" d="M 89.355469 20.851562 L 89.355469 16.152344 C 89.355469 15.566406 89.273438 15.128906 89.117188 14.839844 C 88.953125 14.542969 88.699219 14.398438 88.355469 14.398438 C 87.894531 14.398438 87.558594 14.59375 87.347656 14.988281 C 87.132812 15.378906 87.027344 15.988281 87.027344 16.820312 L 87.027344 20.851562 L 84.039062 20.851562 L 84.039062 16.152344 C 84.039062 15.566406 83.960938 15.128906 83.804688 14.839844 C 83.652344 14.542969 83.410156 14.398438 83.070312 14.398438 C 82.601562 14.398438 82.257812 14.609375 82.042969 15.027344 C 81.832031 15.441406 81.726562 16.125 81.726562 17.066406 L 81.726562 20.851562 L 78.742188 20.851562 L 78.742188 12.210938 L 80.996094 12.210938 L 81.367188 13.277344 L 81.542969 13.277344 C 81.773438 12.878906 82.105469 12.578125 82.539062 12.367188 C 82.96875 12.160156 83.464844 12.054688 84.019531 12.054688 C 85.265625 12.054688 86.140625 12.4375 86.644531 13.195312 L 86.878906 13.195312 C 87.125 12.839844 87.464844 12.5625 87.898438 12.363281 C 88.332031 12.160156 88.8125 12.054688 89.335938 12.054688 C 90.359375 12.054688 91.113281 12.320312 91.597656 12.84375 C 92.085938 13.367188 92.332031 14.164062 92.332031 15.230469 L 92.332031 20.851562 Z M 89.355469 20.851562 " fill-opacity="1" fill-rule="nonzero"/><path fill="#274082" d="M 98.53125 21 C 97.089844 21 95.972656 20.621094 95.175781 19.855469 C 94.382812 19.089844 93.984375 18 93.984375 16.585938 C 93.984375 15.128906 94.351562 14.007812 95.089844 13.226562 C 95.828125 12.445312 96.878906 12.054688 98.25 12.054688 C 99.550781 12.054688 100.554688 12.398438 101.265625 13.078125 C 101.976562 13.753906 102.332031 14.730469 102.332031 16.007812 L 102.332031 17.335938 L 96.996094 17.335938 C 97.015625 17.820312 97.195312 18.199219 97.527344 18.472656 C 97.863281 18.746094 98.316406 18.882812 98.886719 18.882812 C 99.410156 18.882812 99.890625 18.835938 100.328125 18.738281 C 100.773438 18.640625 101.25 18.46875 101.765625 18.226562 L 101.765625 20.371094 C 101.296875 20.609375 100.8125 20.773438 100.316406 20.863281 C 99.816406 20.953125 99.222656 21 98.53125 21 Z M 98.355469 14.085938 C 98.003906 14.085938 97.707031 14.195312 97.46875 14.417969 C 97.234375 14.636719 97.097656 14.984375 97.058594 15.457031 L 99.621094 15.457031 C 99.613281 15.039062 99.492188 14.707031 99.265625 14.460938 C 99.039062 14.210938 98.734375 14.085938 98.355469 14.085938 Z M 98.355469 14.085938 " fill-opacity="1" fill-rule="nonzero"/><path fill="#274082" d="M 106.695312 21 C 106.078125 21 105.539062 20.828125 105.082031 20.480469 C 104.621094 20.128906 104.265625 19.613281 104.015625 18.933594 C 103.765625 18.25 103.640625 17.453125 103.640625 16.542969 C 103.640625 15.136719 103.917969 14.039062 104.484375 13.246094 C 105.046875 12.453125 105.824219 12.054688 106.8125 12.054688 C 107.292969 12.054688 107.714844 12.152344 108.078125 12.347656 C 108.441406 12.539062 108.773438 12.867188 109.074219 13.324219 L 109.136719 13.324219 C 109.042969 12.648438 108.996094 11.972656 108.996094 11.296875 L 108.996094 8.980469 L 111.996094 8.980469 L 111.996094 20.851562 L 109.75 20.851562 L 109.105469 19.757812 L 108.996094 19.757812 C 108.476562 20.585938 107.710938 21 106.695312 21 Z M 107.914062 18.648438 C 108.390625 18.648438 108.726562 18.5 108.921875 18.199219 C 109.121094 17.898438 109.230469 17.433594 109.242188 16.808594 L 109.242188 16.574219 C 109.242188 15.8125 109.132812 15.269531 108.910156 14.949219 C 108.691406 14.625 108.351562 14.460938 107.882812 14.460938 C 107.492188 14.460938 107.1875 14.648438 106.972656 15.015625 C 106.753906 15.382812 106.648438 15.90625 106.648438 16.585938 C 106.648438 17.261719 106.753906 17.769531 106.972656 18.121094 C 107.195312 18.472656 107.507812 18.648438 107.914062 18.648438 Z M 107.914062 18.648438 " fill-opacity="1" fill-rule="nonzero"/><path fill="#274082" d="M 116.664062 9.714844 L 116.773438 9.886719 C 116.304688 11.746094 115.859375 13.171875 115.429688 14.164062 L 113.304688 14.164062 C 113.648438 12.550781 113.898438 11.070312 114.050781 9.714844 Z M 116.664062 9.714844 " fill-opacity="1" fill-rule="nonzero"/><path fill="#274082" d="M 124.628906 18.199219 C 124.628906 19.121094 124.3125 19.820312 123.679688 20.292969 C 123.050781 20.765625 122.148438 21 120.96875 21 C 120.328125 21 119.769531 20.964844 119.300781 20.898438 C 118.828125 20.832031 118.34375 20.707031 117.851562 20.527344 L 117.851562 18.132812 C 118.3125 18.339844 118.820312 18.507812 119.371094 18.640625 C 119.921875 18.769531 120.414062 18.835938 120.847656 18.835938 C 121.492188 18.835938 121.816406 18.691406 121.816406 18.394531 C 121.816406 18.242188 121.722656 18.109375 121.542969 17.992188 C 121.363281 17.871094 120.839844 17.636719 119.96875 17.289062 C 119.175781 16.964844 118.621094 16.597656 118.304688 16.183594 C 117.992188 15.769531 117.835938 15.242188 117.835938 14.605469 C 117.835938 13.804688 118.144531 13.179688 118.765625 12.734375 C 119.386719 12.28125 120.261719 12.054688 121.398438 12.054688 C 121.964844 12.054688 122.5 12.121094 123 12.246094 C 123.5 12.371094 124.023438 12.554688 124.566406 12.792969 L 123.753906 14.707031 C 123.359375 14.53125 122.9375 14.382812 122.492188 14.261719 C 122.050781 14.136719 121.6875 14.070312 121.414062 14.070312 C 120.921875 14.070312 120.679688 14.191406 120.679688 14.429688 C 120.679688 14.578125 120.761719 14.703125 120.929688 14.804688 C 121.105469 14.910156 121.597656 15.121094 122.414062 15.441406 C 123.015625 15.695312 123.464844 15.941406 123.765625 16.175781 C 124.0625 16.417969 124.28125 16.699219 124.421875 17.023438 C 124.558594 17.34375 124.628906 17.734375 124.628906 18.199219 Z M 124.628906 18.199219 " fill-opacity="1" fill-rule="nonzero"/><path fill="#274082" d="M 52.867188 33.433594 L 54.738281 33.433594 L 54.738281 33.746094 L 52.867188 33.746094 M 55.050781 33.433594 L 56.921875 33.433594 L 56.921875 33.746094 L 55.050781 33.746094 M 57.230469 33.433594 L 59.101562 33.433594 L 59.101562 33.746094 L 57.230469 33.746094 M 59.414062 33.433594 L 61.285156 33.433594 L 61.285156 33.746094 L 59.414062 33.746094 M 61.597656 33.433594 L 63.46875 33.433594 L 63.46875 33.746094 L 61.597656 33.746094 M 63.78125 33.433594 L 65.652344 33.433594 L 65.652344 33.746094 L 63.78125 33.746094 M 65.964844 33.433594 L 67.835938 33.433594 L 67.835938 33.746094 L 65.964844 33.746094 M 68.148438 33.433594 L 70.019531 33.433594 L 70.019531 33.746094 L 68.148438 33.746094 M 70.328125 33.433594 L 72.203125 33.433594 L 72.203125 33.746094 L 70.328125 33.746094 M 72.511719 33.433594 L 74.382812 33.433594 L 74.382812 33.746094 L 72.511719 33.746094 M 74.695312 33.433594 L 76.566406 33.433594 L 76.566406 33.746094 L 74.695312 33.746094 M 76.878906 33.433594 L 78.75 33.433594 L 78.75 33.746094 L 76.878906 33.746094 M 79.0625 33.433594 L 80.933594 33.433594 L 80.933594 33.746094 L 79.0625 33.746094 M 81.246094 33.433594 L 83.117188 33.433594 L 83.117188 33.746094 L 81.246094 33.746094 M 83.429688 33.433594 L 85.300781 33.433594 L 85.300781 33.746094 L 83.429688 33.746094 M 85.609375 33.433594 L 87.484375 33.433594 L 87.484375 33.746094 L 85.609375 33.746094 M 87.796875 33.433594 L 89.664062 33.433594 L 89.664062 33.746094 L 87.796875 33.746094 M 89.976562 33.433594 L 91.847656 33.433594 L 91.847656 33.746094 L 89.976562 33.746094 M 92.160156 33.433594 L 94.03125 33.433594 L 94.03125 33.746094 L 92.160156 33.746094 M 94.34375 33.433594 L 96.214844 33.433594 L 96.214844 33.746094 L 94.34375 33.746094 M 96.527344 33.433594 L 98.398438 33.433594 L 98.398438 33.746094 L 96.527344 33.746094 M 98.710938 33.433594 L 100.582031 33.433594 L 100.582031 33.746094 L 98.710938 33.746094 M 100.894531 33.433594 L 102.765625 33.433594 L 102.765625 33.746094 L 100.894531 33.746094 M 103.078125 33.433594 L 104.945312 33.433594 L 104.945312 33.746094 L 103.078125 33.746094 M 105.257812 33.433594 L 107.132812 33.433594 L 107.132812 33.746094 L 105.257812 33.746094 M 107.441406 33.433594 L 109.3125 33.433594 L 109.3125 33.746094 L 107.441406 33.746094 M 109.625 33.433594 L 111.496094 33.433594 L 111.496094 33.746094 L 109.625 33.746094 M 111.808594 33.433594 L 113.679688 33.433594 L 113.679688 33.746094 L 111.808594 33.746094 M 113.992188 33.433594 L 115.863281 33.433594 L 115.863281 33.746094 L 113.992188 33.746094 M 116.175781 33.433594 L 118.046875 33.433594 L 118.046875 33.746094 L 116.175781 33.746094 M 118.355469 33.433594 L 120.230469 33.433594 L 120.230469 33.746094 L 118.355469 33.746094 M 120.539062 33.433594 L 122.410156 33.433594 L 122.410156 33.746094 L 120.539062 33.746094 M 122.722656 33.433594 L 124.59375 33.433594 L 124.59375 33.746094 L 122.722656 33.746094 M 124.90625 33.433594 L 126.777344 33.433594 L 126.777344 33.746094 L 124.90625 33.746094 M 127.089844 33.433594 L 128.960938 33.433594 L 128.960938 33.746094 L 127.089844 33.746094 M 129.273438 33.433594 L 131.144531 33.433594 L 131.144531 33.746094 L 129.273438 33.746094 M 131.457031 33.433594 L 133.324219 33.433594 L 133.324219 33.746094 L 131.457031 33.746094 M 133.636719 33.433594 L 135.511719 33.433594 L 135.511719 33.746094 L 133.636719 33.746094 M 135.820312 33.433594 L 137.691406 33.433594 L 137.691406 33.746094 L 135.820312 33.746094 M 138.003906 33.433594 L 139.875 33.433594 L 139.875 33.746094 L 138.003906 33.746094 M 140.1875 33.433594 L 141.789062 33.433594 L 141.789062 33.746094 L 140.1875 33.746094 " fill-opacity="1" fill-rule="nonzero"/><path fill="#274082" d="M 52.867188 38.976562 L 54.734375 38.976562 L 54.734375 39.289062 L 52.867188 39.289062 M 55.046875 38.976562 L 56.921875 38.976562 L 56.921875 39.289062 L 55.046875 39.289062 M 57.230469 38.976562 L 59.101562 38.976562 L 59.101562 39.289062 L 57.230469 39.289062 M 59.414062 38.976562 L 61.285156 38.976562 L 61.285156 39.289062 L 59.414062 39.289062 M 61.597656 38.976562 L 63.46875 38.976562 L 63.46875 39.289062 L 61.597656 39.289062 M 63.78125 38.976562 L 65.652344 38.976562 L 65.652344 39.289062 L 63.78125 39.289062 M 65.964844 38.976562 L 67.835938 38.976562 L 67.835938 39.289062 L 65.964844 39.289062 M 68.148438 38.976562 L 70.019531 38.976562 L 70.019531 39.289062 L 68.148438 39.289062 M 70.328125 38.976562 L 72.203125 38.976562 L 72.203125 39.289062 L 70.328125 39.289062 M 72.511719 38.976562 L 74.382812 38.976562 L 74.382812 39.289062 L 72.511719 39.289062 M 74.695312 38.976562 L 76.566406 38.976562 L 76.566406 39.289062 L 74.695312 39.289062 M 76.878906 38.976562 L 78.75 38.976562 L 78.75 39.289062 L 76.878906 39.289062 M 79.0625 38.976562 L 80.933594 38.976562 L 80.933594 39.289062 L 79.0625 39.289062 M 81.246094 38.976562 L 83.117188 38.976562 L 83.117188 39.289062 L 81.246094 39.289062 M 83.429688 38.976562 L 85.300781 38.976562 L 85.300781 39.289062 L 83.429688 39.289062 M 85.609375 38.976562 L 87.484375 38.976562 L 87.484375 39.289062 L 85.609375 39.289062 M 87.796875 38.976562 L 89.664062 38.976562 L 89.664062 39.289062 L 87.796875 39.289062 M 89.976562 38.976562 L 91.847656 38.976562 L 91.847656 39.289062 L 89.976562 39.289062 M 92.160156 38.976562 L 94.03125 38.976562 L 94.03125 39.289062 L 92.160156 39.289062 M 94.34375 38.976562 L 96.214844 38.976562 L 96.214844 39.289062 L 94.34375 39.289062 M 96.527344 38.976562 L 98.398438 38.976562 L 98.398438 39.289062 L 96.527344 39.289062 M 98.710938 38.976562 L 100.582031 38.976562 L 100.582031 39.289062 L 98.710938 39.289062 M 100.894531 38.976562 L 102.765625 38.976562 L 102.765625 39.289062 L 100.894531 39.289062 M 103.074219 38.976562 L 104.945312 38.976562 L 104.945312 39.289062 L 103.074219 39.289062 M 105.257812 38.976562 L 107.128906 38.976562 L 107.128906 39.289062 L 105.257812 39.289062 M 107.441406 38.976562 L 109.3125 38.976562 L 109.3125 39.289062 L 107.441406 39.289062 M 109.625 38.976562 L 111.496094 38.976562 L 111.496094 39.289062 L 109.625 39.289062 M 111.808594 38.976562 L 113.679688 38.976562 L 113.679688 39.289062 L 111.808594 39.289062 M 113.988281 38.976562 L 115.863281 38.976562 L 115.863281 39.289062 L 113.988281 39.289062 M 116.175781 38.976562 L 118.042969 38.976562 L 118.042969 39.289062 L 116.175781 39.289062 M 118.355469 38.976562 L 120.230469 38.976562 L 120.230469 39.289062 L 118.355469 39.289062 M 120.539062 38.976562 L 122.410156 38.976562 L 122.410156 39.289062 L 120.539062 39.289062 M 122.722656 38.976562 L 124.59375 38.976562 L 124.59375 39.289062 L 122.722656 39.289062 M 124.90625 38.976562 L 126.777344 38.976562 L 126.777344 39.289062 L 124.90625 39.289062 M 127.089844 38.976562 L 128.960938 38.976562 L 128.960938 39.289062 L 127.089844 39.289062 M 129.273438 38.976562 L 131.144531 38.976562 L 131.144531 39.289062 L 129.273438 39.289062 M 131.457031 38.976562 L 133.324219 38.976562 L 133.324219 39.289062 L 131.457031 39.289062 M 133.636719 38.976562 L 135.511719 38.976562 L 135.511719 39.289062 L 133.636719 39.289062 M 135.820312 38.976562 L 137.691406 38.976562 L 137.691406 39.289062 L 135.820312 39.289062 M 138.003906 38.976562 L 139.875 38.976562 L 139.875 39.289062 L 138.003906 39.289062 M 140.1875 38.976562 L 141.789062 38.976562 L 141.789062 39.289062 L 140.1875 39.289062 " fill-opacity="1" fill-rule="nonzero"/><path fill="#000000" d="M 22.945312 36.621094 C 22.945312 36.835938 22.789062 36.972656 22.558594 36.972656 C 22.324219 36.972656 22 36.832031 21.84375 36.472656 L 21.648438 36.472656 L 21.695312 37.128906 L 21.886719 37.128906 C 21.894531 37.082031 21.941406 37.007812 22.035156 37.007812 C 22.195312 37.007812 22.34375 37.191406 22.683594 37.191406 C 23.070312 37.191406 23.589844 36.972656 23.589844 36.40625 C 23.589844 35.839844 23.0625 35.628906 22.761719 35.480469 C 22.464844 35.34375 22.296875 35.210938 22.296875 34.996094 C 22.296875 34.824219 22.421875 34.679688 22.652344 34.679688 C 22.804688 34.679688 23.039062 34.742188 23.222656 35.136719 L 23.378906 35.136719 L 23.34375 34.511719 L 23.148438 34.511719 C 23.136719 34.558594 23.097656 34.582031 23.046875 34.582031 C 22.945312 34.582031 22.796875 34.480469 22.511719 34.480469 C 22.066406 34.480469 21.6875 34.734375 21.6875 35.199219 C 21.6875 35.652344 22.054688 35.871094 22.429688 36.0625 C 22.839844 36.273438 22.945312 36.429688 22.945312 36.621094 Z M 22.945312 36.621094 " fill-opacity="1" fill-rule="nonzero"/><path fill="#000000" d="M 24.984375 36.753906 L 24.984375 34.921875 C 24.984375 34.773438 25.0625 34.730469 25.300781 34.710938 L 25.300781 34.546875 C 24.871094 34.558594 24.425781 34.558594 23.992188 34.546875 L 23.992188 34.710938 C 24.222656 34.730469 24.304688 34.773438 24.304688 34.921875 L 24.304688 36.753906 C 24.304688 36.898438 24.222656 36.945312 23.992188 36.964844 L 23.992188 37.128906 C 24.425781 37.117188 24.871094 37.117188 25.300781 37.128906 L 25.300781 36.964844 C 25.0625 36.945312 24.984375 36.898438 24.984375 36.753906 Z M 24.984375 36.753906 " fill-opacity="1" fill-rule="nonzero"/><path fill="#000000" d="M 27.238281 34.546875 L 27.238281 34.710938 C 27.511719 34.734375 27.734375 34.792969 27.734375 34.988281 L 27.734375 35.996094 L 26.703125 34.546875 C 26.371094 34.558594 26.039062 34.558594 25.710938 34.546875 L 25.710938 34.710938 C 25.941406 34.730469 26.101562 34.847656 26.101562 35.070312 L 26.101562 36.679688 C 26.101562 36.882812 25.878906 36.941406 25.664062 36.964844 L 25.664062 37.128906 C 26.007812 37.117188 26.417969 37.117188 26.820312 37.128906 L 26.820312 36.964844 C 26.535156 36.941406 26.316406 36.882812 26.316406 36.679688 L 26.316406 35.136719 L 27.738281 37.128906 L 27.949219 37.128906 L 27.949219 34.988281 C 27.949219 34.792969 28.171875 34.734375 28.390625 34.710938 L 28.390625 34.546875 C 28.042969 34.558594 27.636719 34.558594 27.238281 34.546875 Z M 27.238281 34.546875 " fill-opacity="1" fill-rule="nonzero"/><path fill="#000000" d="M 30.992188 36.421875 C 30.835938 36.859375 30.542969 36.980469 30.300781 36.980469 C 29.757812 36.980469 29.515625 36.382812 29.515625 35.675781 C 29.515625 35.0625 29.683594 34.6875 30.113281 34.6875 C 30.457031 34.6875 30.675781 34.933594 30.835938 35.28125 L 31.179688 35.28125 C 31.082031 35.039062 31.03125 34.796875 31.019531 34.550781 C 30.890625 34.585938 30.835938 34.585938 30.78125 34.585938 C 30.519531 34.585938 30.417969 34.480469 30.097656 34.480469 C 29.355469 34.480469 28.796875 34.988281 28.796875 35.8125 C 28.796875 36.617188 29.339844 37.195312 30.152344 37.195312 C 30.824219 37.195312 31.121094 36.804688 31.214844 36.421875 Z M 30.992188 36.421875 " fill-opacity="1" fill-rule="nonzero"/><path fill="#000000" d="M 33.71875 36.363281 L 33.554688 36.363281 L 33.382812 36.644531 C 33.257812 36.855469 33.132812 36.941406 32.820312 36.941406 L 32.773438 36.941406 C 32.640625 36.941406 32.582031 36.898438 32.582031 36.753906 L 32.582031 35.878906 L 32.980469 35.878906 C 33.195312 35.878906 33.265625 35.96875 33.308594 36.140625 L 33.441406 36.140625 C 33.417969 35.890625 33.417969 35.6875 33.441406 35.433594 L 33.308594 35.433594 C 33.265625 35.613281 33.191406 35.679688 32.980469 35.679688 L 32.582031 35.679688 L 32.582031 34.839844 C 32.582031 34.757812 32.625 34.71875 32.703125 34.71875 L 32.902344 34.71875 C 33.242188 34.71875 33.316406 34.816406 33.441406 35.046875 L 33.488281 35.140625 L 33.648438 35.140625 L 33.574219 34.621094 C 33.566406 34.558594 33.554688 34.546875 33.503906 34.546875 L 31.597656 34.546875 L 31.597656 34.710938 C 31.828125 34.730469 31.902344 34.757812 31.902344 34.878906 L 31.902344 36.753906 C 31.902344 36.898438 31.828125 36.945312 31.597656 36.964844 L 31.597656 37.128906 C 32.253906 37.109375 32.886719 37.109375 33.578125 37.128906 C 33.574219 36.882812 33.621094 36.628906 33.71875 36.363281 Z M 33.71875 36.363281 " fill-opacity="1" fill-rule="nonzero"/><path fill="#000000" d="M 37.316406 36.371094 L 37.15625 36.371094 L 37.042969 36.539062 C 36.949219 36.675781 36.769531 36.691406 36.539062 36.691406 L 35.847656 36.691406 C 36.496094 36.289062 37.1875 35.847656 37.1875 35.242188 C 37.1875 34.773438 36.796875 34.480469 36.222656 34.480469 C 35.632812 34.480469 35.261719 34.808594 35.261719 35.25 C 35.261719 35.476562 35.363281 35.695312 35.601562 35.695312 C 35.777344 35.695312 35.894531 35.570312 35.894531 35.433594 C 35.894531 35.316406 35.84375 35.300781 35.84375 35.121094 C 35.84375 34.847656 35.96875 34.671875 36.203125 34.671875 C 36.429688 34.671875 36.550781 34.84375 36.550781 35.113281 C 36.550781 35.832031 35.652344 36.601562 35.273438 36.949219 L 35.289062 37.128906 L 37.019531 37.128906 C 37.082031 37.128906 37.136719 37.097656 37.152344 37.03125 Z M 37.316406 36.371094 " fill-opacity="1" fill-rule="nonzero"/><path fill="#000000" d="M 40.082031 35.828125 C 40.082031 35.09375 39.652344 34.484375 38.925781 34.484375 C 38.195312 34.484375 37.761719 35.09375 37.761719 35.828125 C 37.761719 36.578125 38.195312 37.191406 38.925781 37.191406 C 39.652344 37.191406 40.082031 36.566406 40.082031 35.828125 Z M 38.925781 36.988281 C 38.523438 36.988281 38.453125 36.3125 38.453125 35.828125 C 38.453125 35.359375 38.523438 34.683594 38.925781 34.683594 C 39.320312 34.683594 39.386719 35.359375 39.386719 35.828125 C 39.386719 36.3125 39.320312 36.988281 38.925781 36.988281 Z M 38.925781 36.988281 " fill-opacity="1" fill-rule="nonzero"/><path fill="#000000" d="M 41.535156 36.808594 L 41.535156 35.257812 C 41.535156 34.988281 41.535156 34.832031 41.5625 34.632812 C 41.539062 34.578125 41.496094 34.539062 41.441406 34.511719 C 41.199219 34.652344 40.898438 34.742188 40.585938 34.792969 L 40.585938 34.957031 C 40.796875 34.941406 40.882812 34.988281 40.882812 35.164062 L 40.882812 36.808594 C 40.882812 36.914062 40.769531 36.945312 40.59375 36.964844 L 40.59375 37.128906 C 41.019531 37.121094 41.410156 37.121094 41.835938 37.128906 L 41.835938 36.964844 C 41.648438 36.945312 41.535156 36.914062 41.535156 36.808594 Z M 41.535156 36.808594 " fill-opacity="1" fill-rule="nonzero"/><path fill="#000000" d="M 43.503906 35.347656 C 43.171875 35.347656 42.816406 35.523438 42.6875 35.710938 L 42.746094 34.980469 L 43.855469 34.980469 C 43.921875 34.980469 43.972656 34.949219 43.988281 34.886719 L 44.109375 34.429688 L 43.796875 34.429688 C 43.726562 34.527344 43.609375 34.546875 43.417969 34.546875 L 42.613281 34.546875 L 42.5 35.894531 L 42.722656 35.894531 C 42.835938 35.730469 43.03125 35.601562 43.25 35.601562 C 43.566406 35.601562 43.804688 35.871094 43.804688 36.332031 C 43.804688 36.671875 43.679688 37.015625 43.308594 37.015625 C 43 37.015625 42.929688 36.765625 42.875 36.597656 C 42.835938 36.460938 42.820312 36.289062 42.601562 36.289062 C 42.398438 36.289062 42.308594 36.4375 42.355469 36.628906 C 42.425781 36.945312 42.796875 37.179688 43.304688 37.179688 C 43.890625 37.179688 44.457031 36.851562 44.457031 36.222656 C 44.457031 35.589844 43.894531 35.347656 43.503906 35.347656 Z M 43.503906 35.347656 " fill-opacity="1" fill-rule="nonzero"/></svg>